<svg width="558" height="810" xmlns="http://www.w3.org/2000/svg" xmlns:xlink="http://www.w3.org/1999/xlink" xml:space="preserve" overflow="hidden"><g transform="translate(-13564 -1575)"><path d="M14002.2 2332.05 14002.2 2336.92 14054.1 2336.92 14054.1 2332.05ZM13878.7 2332.05 13878.7 2336.92 13930.7 2336.92 13930.7 2332.05ZM13755.3 2332.05 13755.3 2336.92 13807.3 2336.92 13807.3 2332.05ZM13631.9 2332.05 13631.9 2336.92 13683.8 2336.92 13683.8 2332.05ZM14028.1 2283.97 14078.6 2334.49 14028.1 2385 13977.6 2334.49ZM13904.7 2283.97 13955.2 2334.49 13904.7 2385 13854.2 2334.49ZM13781.3 2283.97 13831.8 2334.49 13781.3 2385 13730.8 2334.49ZM13657.9 2283.97 13708.4 2334.49 13657.9 2385 13607.4 2334.49ZM14002.2 2207.98 14002.2 2212.85 14054.1 2212.85 14054.1 2207.98ZM13878.7 2207.98 13878.7 2212.85 13930.7 2212.85 13930.7 2207.98ZM13755.3 2207.98 13755.3 2212.85 13807.3 2212.85 13807.3 2207.98ZM13631.9 2207.98 13631.9 2212.85 13683.8 2212.85 13683.8 2207.98ZM14028.1 2159.9 14078.6 2210.42 14028.1 2260.93 13977.6 2210.42ZM13904.7 2159.9 13955.2 2210.42 13904.7 2260.93 13854.2 2210.42ZM13781.3 2159.9 13831.8 2210.42 13781.3 2260.93 13730.8 2210.42ZM13657.9 2159.9 13708.4 2210.42 13657.9 2260.93 13607.4 2210.42ZM13799.2 1953.85 13730.5 2046.14 13735.9 2049.25C13755.1 2059.85 13776.1 2067.68 13798.2 2072.22L13799.2 2072.4ZM13886.8 1953.85 13886.8 2072.4 13887.8 2072.22C13909.9 2067.68 13930.9 2059.85 13950.1 2049.25L13955.5 2046.14ZM13741.2 1873.59 13741.2 1908.16 13799.2 1908.16 13799.2 1873.59ZM13886.8 1872.75 13886.8 1907.32 13944.8 1907.32 13944.8 1872.75ZM13741.2 1796.74 13741.2 1829.75 13799.2 1829.75 13799.2 1796.74ZM13886.8 1795.9 13886.8 1828.91 13944.8 1828.91 13944.8 1795.9ZM13886.8 1728.55 13886.8 1752.06 13944.8 1752.06 14032.4 1752.06 14032.4 1951.27 13970 1951.27 14008.3 2002.72 14014.5 1995.79C14046.2 1957.33 14065.2 1908.04 14065.2 1854.29 14065.2 1813.97 14054.5 1776.17 14035.8 1743.56L14026.3 1728.55ZM13659.7 1728.55 13650.2 1743.56C13631.5 1776.17 13620.8 1813.97 13620.8 1854.29 13620.8 1908.04 13639.8 1957.33 13671.5 1995.79L13677.7 2002.72 13715.4 1952.11 13653.6 1952.11 13653.6 1752.9 13741.2 1752.9 13799.2 1752.9 13799.2 1728.55ZM13886.8 1636.17 13886.8 1679.64 13980.3 1679.64 13973.8 1674.44C13948.6 1656.05 13919.4 1642.83 13887.8 1636.35ZM13799.2 1636.17 13798.2 1636.35C13766.6 1642.83 13737.4 1656.05 13712.2 1674.44L13705.7 1679.64 13799.2 1679.64ZM13843 1575C13997.1 1575 14122 1700.04 14122 1854.29 14122 2008.53 13997.1 2133.57 13843 2133.57 13688.9 2133.57 13564 2008.53 13564 1854.29 13564 1700.04 13688.9 1575 13843 1575Z" fill="#CFF041" fill-rule="evenodd"/></g></svg>