<svg width="699" height="810" xmlns="http://www.w3.org/2000/svg" xmlns:xlink="http://www.w3.org/1999/xlink" xml:space="preserve" overflow="hidden"><defs><clipPath id="clip0"><rect x="6332" y="1576" width="699" height="810"/></clipPath></defs><g clip-path="url(#clip0)" transform="translate(-6332 -1576)"><path d="M98.7757 778.268 92.5784 778.268 109.256 790.389 102.886 810 110.998 804.104 115.453 790.389ZM110.913 778.268 104.716 778.268 121.393 790.389 115.023 810 123.136 804.104 127.591 790.389ZM594.284 778.268 588.087 778.268 571.409 790.389 575.865 804.104 583.977 810 577.607 790.389ZM606.422 778.268 600.224 778.268 583.547 790.389 588.002 804.104 596.115 810 589.744 790.389ZM119.563 758.657 113.193 778.268 113.193 778.268 116.847 778.268 133.525 790.389 127.155 810 135.267 804.104 139.722 790.389 123.045 778.268 119.39 778.268 119.39 778.268 122.662 768.197ZM131.701 758.657 125.33 778.268 125.33 778.268 129.162 778.268 145.84 790.389 139.469 810 147.582 804.104 152.037 790.389 135.36 778.268 131.528 778.268 131.528 778.268 134.799 768.197ZM143.832 758.657 137.462 778.268 137.462 778.268 141.403 778.268 158.081 790.389 151.71 810 159.823 804.104 164.278 790.389 147.6 778.268 143.659 778.268 143.659 778.268 146.931 768.197ZM542.853 758.657 539.754 768.197 543.026 778.268 543.026 778.268 536.983 778.268 536.983 778.268 530.612 758.657 527.514 768.197 530.785 778.268 530.785 778.268 523.982 778.268 523.982 778.268 517.612 758.657 511.242 778.268 511.242 778.268 502.569 778.268 490.627 778.268 481.954 778.268 481.954 778.268 475.584 758.657 469.214 778.268 469.214 778.268 460.541 778.268 448.599 778.268 439.926 778.268 439.926 778.268 433.556 758.657 427.186 778.268 427.186 778.268 418.513 778.268 406.571 778.268 397.898 778.268 397.898 778.268 391.528 758.657 385.158 778.268 385.158 778.268 376.485 778.268 364.543 778.268 355.87 778.268 355.87 778.268 349.5 758.657 343.13 778.268 343.13 778.268 334.457 778.268 322.515 778.268 313.842 778.268 313.842 778.268 307.472 758.657 301.102 778.268 301.102 778.268 292.429 778.268 280.487 778.268 271.814 778.268 271.814 778.268 265.444 758.657 259.074 778.268 259.074 778.268 250.401 778.268 238.459 778.268 229.787 778.268 229.787 778.268 223.416 758.657 217.046 778.268 217.046 778.268 208.373 778.268 196.431 778.268 187.759 778.268 187.759 778.268 181.388 758.657 175.018 778.268 175.018 778.268 168.215 778.268 168.215 778.268 171.487 768.197 168.388 758.657 162.018 778.268 162.018 778.268 155.974 778.268 155.974 778.268 159.246 768.197 156.147 758.657 149.777 778.268 149.777 778.268 154.403 778.268 171.081 790.389 164.711 810 181.388 797.88 198.066 810 191.696 790.389 202.402 782.608 213.109 790.389 206.739 810 223.416 797.88 240.094 810 233.724 790.389 244.43 782.608 255.137 790.389 248.767 810 265.444 797.88 282.122 810 275.752 790.389 286.458 782.608 297.165 790.389 290.794 810 307.472 797.88 324.15 810 317.78 790.389 328.486 782.608 339.193 790.389 332.823 810 349.5 797.88 366.178 810 359.807 790.389 370.514 782.608 381.221 790.389 374.85 810 391.528 797.88 408.206 810 401.835 790.389 412.542 782.608 423.249 790.389 416.878 810 433.556 797.88 450.234 810 443.863 790.389 454.57 782.608 465.277 790.389 458.906 810 475.584 797.88 492.262 810 485.891 790.389 496.598 782.608 507.304 790.389 500.934 810 517.612 797.88 534.29 810 527.919 790.389 544.597 778.268 549.223 778.268 549.223 778.268ZM555.168 758.657 552.069 768.197 555.341 778.268 555.341 778.268 551.4 778.268 534.722 790.389 539.177 804.104 547.29 810 540.92 790.389 557.597 778.268 561.538 778.268 561.538 778.268ZM567.299 758.657 564.201 768.197 567.472 778.268 567.472 778.268 563.641 778.268 546.963 790.389 551.418 804.104 559.531 810 553.16 790.389 569.838 778.268 573.67 778.268 573.67 778.268ZM579.437 758.657 576.338 768.197 579.61 778.268 579.61 778.268 575.956 778.268 559.278 790.389 563.733 804.104 571.846 810 565.475 790.389 582.153 778.268 585.807 778.268 585.807 778.268ZM329.593 663.307 323.501 682.882C322.012 681.522 320.623 679.687 319.135 678.348 319.089 683.817 319.12 689.906 319.074 695.375L334.663 708.575C336.033 703.746 338.468 696.522 339.667 691.651ZM369.407 663.307 359.333 691.651C360.532 696.522 362.967 703.746 364.337 708.575L379.927 695.375C379.88 689.906 379.912 683.817 379.865 678.348 378.377 679.687 376.988 681.522 375.499 682.882 372.796 676.79 371.117 672.319 369.407 663.307ZM342.995 662.97 337.766 669.323 343.062 683.625C343.04 676.74 343.017 669.855 342.995 662.97ZM356.005 662.97C355.983 669.855 355.961 676.74 355.938 683.625L361.235 669.323ZM249.594 606.501 272.04 645.842 283.054 690.626 248.073 744.328 259.008 744.642 319.198 703.399C316.264 700.026 312.646 696.489 310.227 692.72L313.802 671.326 299.487 648.063C299.445 654.2 299.402 660.338 299.359 666.476L293.652 658.147 263.582 611.415ZM449.406 606.501 435.418 611.415 405.348 658.147 399.641 666.476C399.598 660.338 399.556 654.2 399.513 648.063L385.198 671.326 388.774 692.72C386.354 696.489 382.736 700.026 379.802 703.399L439.993 744.642 450.927 744.328 415.946 690.626 426.961 645.842ZM134.652 562.166 65.6712 601.679 90.7629 601.747 141.697 569.163ZM564.348 562.166 557.303 569.163 608.237 601.747C615.797 601.864 625.77 601.636 633.329 601.679 610.641 588.34 587.272 575.109 564.348 562.166ZM412.115 507.661C412.875 512.307 413.892 516.921 414.845 521.535L385.952 554.684 378.174 555.065 372.703 562.465 349.5 571.261 326.297 562.465 320.827 555.065 313.048 554.684 284.155 521.535C285.108 516.921 286.125 512.307 286.885 507.661 277.12 510.391 267.056 512.2 257.537 515.722L170.093 560.011 116.557 529.104C113.27 526.931 109.223 527.691 105.54 527.809 116.525 538.418 128.335 548.149 139.642 558.426L189.708 602.897C216.347 592.791 242.686 581.892 269.336 571.819 275.364 589.815 282.731 611.786 288.662 629.814L322.609 660.183C318.508 648.825 311.713 634.877 307.087 623.732L314.103 586.507C315.195 589.996 315.348 594.512 316.954 597.841L349.5 610.282 382.046 597.841C383.652 594.512 383.805 589.996 384.898 586.507L391.913 623.732C387.288 634.877 380.492 648.825 376.391 660.183L410.338 629.814C416.27 611.786 423.636 589.815 429.664 571.819 456.314 581.892 482.653 592.791 509.292 602.897 525.899 587.973 542.666 573.243 559.359 558.426 570.665 548.149 582.475 538.418 593.461 527.809 589.777 527.691 585.73 526.931 582.443 529.104L528.908 560.011 441.463 515.722C431.944 512.2 421.88 510.391 412.115 507.661ZM244.674 496.517 160.318 548.384C163.488 550.739 167.073 553.542 170.296 555.822L235.269 518.304ZM454.326 496.517 463.731 518.304 528.704 555.822C531.927 553.542 535.513 550.739 538.682 548.384ZM371.3 483.124 349.5 490.134 327.701 483.124 305.654 512.991C302.003 512.37 298.063 511.472 294.391 511.215L291.37 519.469C295.628 525.339 315.626 541.148 320.493 546.853 320.518 549.133 320.405 551.414 320.431 553.695 323.547 553.96 325.778 553.595 330.464 552.025L349.5 559.697 368.536 552.025C373.222 553.595 375.453 553.96 378.569 553.695 378.595 551.414 378.482 549.133 378.507 546.853 383.374 541.148 403.372 525.339 407.63 519.469L404.609 511.215C400.937 511.472 396.997 512.37 393.346 512.991ZM349.5 470.891 327.133 471.627 328.031 476.568 349.5 486.357 370.969 476.568 371.867 471.627ZM20.3576 435.988 126.717 522.449 161.424 533.777 46.4628 441.548ZM678.643 435.988 652.537 441.548 537.576 533.777 572.283 522.449ZM455.372 304.183C445.425 310.403 435.981 317.405 426.131 323.806L405.487 312.159 355.572 368.767 343.428 368.767 293.513 312.159 272.87 323.806C263.019 317.405 253.576 310.403 243.629 304.183 249.046 313.957 255.706 322.961 262.163 332.06 275.728 350.72 290.708 368.352 306.854 384.838 308.835 386.818 310.526 389.067 311.929 391.507L336.849 434.233C340.934 435.481 345.154 435.498 347.262 435.773L351.738 435.773C353.846 435.498 358.066 435.481 362.151 434.233 369.721 421.141 379.448 404.568 387.071 391.507 388.474 389.067 390.165 386.818 392.146 384.838 408.292 368.352 423.272 350.72 436.838 332.06 443.294 322.961 449.954 313.957 455.372 304.183ZM322.872 287.023 319.298 289.66C321.525 297.636 326.231 309.614 328.672 317.515L321.94 325.787C325.923 329.694 333.546 337.018 337.775 340.657L341.941 356.212 355.699 356.147 358.966 344.318 368.28 334.298ZM280.3 254.275C274.005 270.461 263.448 284.935 249.486 295.341L276.069 316.58C282.023 314.985 289.012 311.259 294.271 308.466 296.649 309.277 299.251 309.845 302.014 310.156 306.95 311.012 312.121 310.541 316.747 309.204 314.381 297.942 309.569 283.725 306.606 277.588 305.312 274.908 304.773 272.257 303.154 270.64 297.741 267.783 288.56 260.442 280.3 254.275ZM418.7 254.275C410.441 260.442 401.259 267.783 395.846 270.64 394.227 272.257 393.689 274.908 392.394 277.588 389.431 283.725 384.619 297.942 382.253 309.204 386.879 310.541 392.05 311.012 396.986 310.156 399.749 309.845 402.351 309.277 404.729 308.466 409.988 311.259 416.977 314.985 422.931 316.58L449.515 295.341C435.553 284.935 424.996 270.461 418.7 254.275ZM319.285 215.928C314.392 226.419 309.445 236.878 304.648 247.413 311.897 256.716 313.695 260.372 317.162 266.136 320.63 271.899 323.358 278.11 325.035 281.994L371.065 329.962 377.392 325.84 370.925 317.051 379.755 290.519C377.56 287.373 375.689 284.434 375.02 281.423 374.352 278.411 374.962 276.626 375.443 271.371 356.567 253.054 338.225 234.181 319.285 215.928ZM0 172.261C13.3731 188.908 27.0568 205.287 40.4405 221.913 44.006 226.27 45.2266 232.543 50.2911 235.572L100.229 268.095C102.456 269.423 104.629 271.489 104.458 274.315 104.94 278.18 100.197 278.94 97.5949 280.332 99.8755 285.331 101.738 290.523 102.895 295.908 99.1688 296.347 95.4642 296.85 91.7702 297.46L136.292 388.04 146.537 444.414C158.668 435.614 170.531 426.439 182.716 417.714L219.613 482.846 237.319 483.238C250.657 486.879 287.984 501.583 299.638 504.692 302.985 504.374 304.609 502.846 304.389 501.576L295.397 487.524 313.431 488.398C316.418 485.443 319.371 481.344 320.773 477.383 321.234 475.97 322.534 473.448 321.11 472.355 318.519 469.808 313.401 466.202 310.403 464.179L288.95 467.105 252.826 454.253 226.003 424.059 182.483 411.55 172.67 356.9C165.346 344.685 155.916 329.47 148.775 317.158 146.783 309.654 148.089 301.657 146.944 294.002 146.58 292.793 145.498 292.022 144.674 291.144 137.982 285.053 130.755 279.55 124.416 273.084 130.787 272.356 137.179 271.939 143.571 271.393L66.2875 227.105C63.8677 225.67 62.0902 223.444 60.3878 221.27 50.5909 208.595 40.5262 196.112 30.7507 183.427 29.3587 181.607 27.7741 179.723 25.4293 179.219 16.96 176.864 8.55498 174.284 0 172.261ZM699 172.261C690.445 174.284 682.04 176.864 673.571 179.219 671.226 179.723 669.641 181.607 668.25 183.427 658.474 196.112 648.409 208.595 638.612 221.27 636.91 223.444 635.133 225.67 632.713 227.105L555.429 271.393C561.821 271.939 568.213 272.356 574.584 273.084 568.245 279.55 561.018 285.053 554.326 291.144 553.502 292.022 552.42 292.793 552.056 294.002 550.911 301.657 552.217 309.654 550.225 317.158 543.084 329.47 533.654 344.685 526.331 356.9L516.517 411.55 472.997 424.059 446.174 454.253 410.05 467.105 388.598 464.179C385.599 466.202 380.482 469.808 377.891 472.355 376.467 473.448 377.766 475.97 378.227 477.383 379.629 481.344 382.582 485.443 385.57 488.398L403.603 487.524 394.611 501.576C394.391 502.846 396.015 504.374 399.362 504.692 411.016 501.583 448.343 486.879 461.681 483.238L479.387 482.846 516.284 417.714C528.469 426.439 540.332 435.614 552.463 444.414L562.708 388.04 607.23 297.46C603.536 296.85 599.831 296.347 596.105 295.908 597.262 290.523 599.125 285.331 601.405 280.332 598.804 278.94 594.06 278.18 594.542 274.315 594.371 271.489 596.544 269.423 598.771 268.095L648.709 235.572C653.774 232.543 654.994 226.27 658.56 221.913 671.943 205.287 685.627 188.908 699 172.261ZM231.423 111.358C228.81 115.993 223.371 120.671 225.769 126.463 228.746 143.913 246.264 200.27 249.282 216.057 247.729 218.016 245.749 219.558 243.875 221.185 239.089 203.949 235.534 186.392 230.673 169.188L224.827 187.925 226.912 216.513C228.137 227.902 230.219 241.175 231.958 249.821 233.146 255.356 235.438 260.559 237.001 265.976 237.847 272.056 235.673 277.998 233.992 283.736 237.868 287.044 241.776 290.331 245.813 293.446 251.134 287.965 257.366 283.318 262.12 277.323 271.199 261.758 277.056 244.372 279.872 226.591 280.686 222.662 278.373 219.14 276.949 215.661 261.67 180.943 246.702 146.075 231.423 111.358ZM467.578 111.358C452.299 146.075 437.33 180.943 422.051 215.661 420.627 219.14 418.314 222.662 419.128 226.591 421.944 244.372 427.801 261.758 436.88 277.323 441.634 283.318 447.866 287.965 453.187 293.446 457.224 290.331 461.132 287.044 465.008 283.736 463.327 277.998 461.153 272.056 461.999 265.976 463.562 260.559 465.854 255.356 467.042 249.821 468.781 241.175 470.864 227.902 472.089 216.513L474.173 187.925 468.327 169.188C463.466 186.392 459.911 203.949 455.125 221.185 453.252 219.558 451.271 218.016 449.718 216.057 452.736 200.27 470.254 143.913 473.231 126.463 475.629 120.671 470.19 115.993 467.578 111.358ZM266.103 1.08131C259.025 23.0916 251.841 45.0592 244.571 67.0052 241.177 77.5822 237.151 87.9772 234.142 98.6611 236.969 107.686 240.909 116.4 244.785 125.039 257.355 100.064 267.12 73.7176 274.69 46.8255 275.632 43.8601 275.739 40.7127 275.247 37.651 273.448 25.2005 270.696 12.8252 266.103 1.08131ZM432.897 1.08131C428.304 12.8252 425.552 25.2005 423.754 37.651 423.261 40.7127 423.368 43.8601 424.31 46.8255 431.88 73.7176 441.645 100.064 454.215 125.039 458.091 116.4 462.031 107.686 464.858 98.6611 461.849 87.9772 457.823 77.5822 454.429 67.0052 447.159 45.0592 439.975 23.0916 432.897 1.08131ZM348.686 1.05975 327.408 146.396 336.534 173.887 323.084 202.347 322.778 209.117 381.055 266.221 394.466 247.256 363.356 170.996 371.362 148.871C370.951 146.058 371.233 142.689 370.822 139.876ZM697.191 0 629.5 55.1973 631.566 65.3196 580.74 185.857 485.78 243.077 469.548 269.926 525.98 250.817 478.941 270.703 474.246 277.636 473.242 289.493 422.366 376.245 395.346 392.328 365.132 445.006 349.5 449.523 333.868 445.006 303.654 392.328 276.634 376.245 225.758 289.493 224.754 277.636 220.059 270.703 173.02 250.817 229.452 269.926 213.22 243.077 118.26 185.857 67.4337 65.3196 69.4997 55.1973 1.80957 0 2.6027 6.22006 39.2994 45.3055 38.5451 57.0632 111.553 228.627 156.056 245.411 159.335 253.022C166.659 264.419 174.51 274.227 181.834 285.624L177.121 322.117 221.594 416.745 268.437 415.766 321.853 468.005C321.21 463.766 319.756 458.459 319.006 454.241L329.09 463.009 349.5 464.08 369.91 463.009 379.994 454.241C379.244 458.459 377.79 463.766 377.148 468.005L430.563 415.766 477.406 416.745 521.879 322.117 517.166 285.624C524.491 274.227 532.342 264.419 539.666 253.022L542.945 245.411 587.447 228.627 660.455 57.0632 659.701 45.3055 696.397 6.22006Z" fill="#CFF041" fill-rule="evenodd" transform="matrix(-1 0 0 1 7031 1576)"/></g></svg>