<svg width="879" height="685" xmlns="http://www.w3.org/2000/svg" xmlns:xlink="http://www.w3.org/1999/xlink" xml:space="preserve" overflow="hidden"><defs><clipPath id="clip0"><rect x="11018" y="6182" width="879" height="685"/></clipPath></defs><g clip-path="url(#clip0)" transform="translate(-11018 -6182)"><path d="M11463.6 6736.48C11482.7 6748.17 11503.3 6757.38 11524.7 6763.62 11540.8 6768.49 11557.4 6770.55 11573.9 6773.58 11594.4 6777.43 11613.6 6787.18 11629.3 6800.9 11638.7 6809.03 11646.9 6818.44 11654.1 6828.5L11622.6 6867C11612.1 6849.42 11596 6830.59 11582 6821.32 11565.7 6810.52 11546 6808.27 11540.6 6808.39 11535.3 6808.5 11531.1 6808.71 11529.7 6812.52 11528.4 6817.94 11529.6 6823.21 11531.2 6828.47L11463.6 6751.97ZM11451.6 6736.48 11451.7 6751.97 11384 6828.46C11385.7 6823.21 11386.8 6817.94 11385.6 6812.52 11384.1 6808.71 11380 6808.5 11374.6 6808.39 11369.3 6808.27 11349.6 6810.52 11333.2 6821.32 11319.2 6830.59 11303.1 6849.42 11292.7 6867L11261.2 6828.5C11268.4 6818.44 11276.6 6809.03 11286 6800.9 11301.7 6787.18 11320.9 6777.43 11341.4 6773.58 11357.8 6770.55 11374.5 6768.49 11390.6 6763.62 11412 6757.38 11432.6 6748.17 11451.6 6736.48ZM11802.8 6721.11C11801.1 6720.84 11799.2 6721.1 11797.5 6722.06 11790.9 6725.03 11789.7 6735 11795.8 6739.1 11801.2 6743.82 11810.3 6739.98 11811.5 6733.14 11812.9 6727.48 11808.2 6721.91 11802.8 6721.11ZM11462.8 6541.65 11463.3 6541.65 11533 6583.18C11520.3 6610.51 11500.9 6636.57 11475.3 6654.93L11486.2 6668.6 11510 6648.48 11531.7 6665.86C11514.2 6690.28 11487 6714.6 11462.8 6730.36ZM11452 6541.65 11452.5 6541.65 11452.5 6730.36C11428.3 6714.6 11401.1 6690.28 11383.6 6665.86L11405.2 6648.48 11429 6668.6 11440 6654.93C11414.4 6636.57 11394.9 6610.51 11382.3 6583.18ZM11494 6482.5 11487.1 6494.5 11501.5 6502.84 11513.2 6518.94 11557.4 6527.12 11528.2 6492.96 11508.4 6490.84ZM11421.3 6482.5 11406.8 6490.84 11387 6492.96 11357.9 6527.12 11402 6518.94 11413.8 6502.84 11428.2 6494.5ZM11769.2 6414.31C11767.1 6414.47 11765 6415.03 11763 6416.15 11767.4 6421.01 11774.2 6423.98 11780.8 6423.48 11783.9 6423.29 11786.1 6421.06 11788 6418.89 11782 6416.9 11775.6 6413.83 11769.2 6414.31ZM11152.8 6398.67C11155.2 6408.25 11166.5 6414.56 11175.7 6410.23 11171.3 6401.69 11160.9 6401.1 11152.8 6398.67ZM11681.6 6379.28C11684.8 6379.47 11688.1 6380.04 11691.2 6380.66 11697.6 6382.04 11704.2 6383.75 11709.4 6387.85L11704 6389.41C11705.3 6402.36 11717.7 6414.37 11731.1 6412.57 11731.8 6408.62 11729.6 6405.57 11727.5 6402.6 11728 6399.31 11732 6397.95 11734.3 6395.94 11731.3 6392.85 11728.4 6389.75 11725.5 6386.56 11733.9 6387.45 11742.6 6389.3 11749.6 6394.39 11752.6 6396.47 11755.2 6399.31 11758.6 6400.73 11763.5 6398.88 11768.4 6396.13 11773.8 6397.25 11782.8 6398.26 11787 6407.86 11795.5 6410.01 11800.7 6411.26 11806.9 6411.43 11811.1 6407.72 11812.7 6406.5 11814.8 6405.08 11816.5 6402.61 11816.2 6410.13 11811.8 6413.18 11807.7 6415.94 11810.6 6418.58 11814.9 6417.97 11818.4 6417.16 11823.7 6415.8 11828.6 6410.81 11833 6406.6 11831.8 6411.28 11827.1 6416.17 11824.4 6419.68 11820.8 6424.31 11816.1 6427.92 11811 6430.68 11813.7 6435.37 11813.7 6441.23 11811.1 6445.97 11809 6443.3 11807.7 6441.01 11805.3 6438.64 11803.1 6437.41 11802.1 6437.12 11800.4 6437.91 11802.2 6440.99 11806 6444.73 11806.7 6448.36 11803.9 6446.78 11799.4 6443.11 11797.7 6446.03 11796 6448.95 11802.2 6455.22 11801.9 6463.41 11801.7 6467.7 11799 6471.19 11796.1 6474.12 11795.6 6470.45 11797.5 6465.01 11793.6 6462.81 11789.6 6462.07 11783 6463.85 11783.5 6468.96 11785 6474.5 11787.9 6479.5 11790.2 6484.71 11786.2 6485.06 11781.3 6484.23 11778.5 6487.71 11770.1 6497.15 11765.1 6509.24 11763.2 6521.65 11780.7 6512.46 11794.9 6497.35 11802.4 6479.1 11805.2 6485.76 11804.8 6493.37 11803.7 6500.37 11801.5 6508.89 11797.6 6516.81 11794.4 6524.96 11806.5 6516.96 11820 6511.09 11834 6507.24 11844.5 6504.43 11853.8 6498.16 11861.4 6490.4 11871 6480.39 11879.5 6469.26 11886.5 6457.26 11890.1 6451.9 11893.9 6442.82 11896.5 6436.83 11898.3 6443.66 11894.7 6453.42 11893.7 6459.74 11890.1 6478.75 11883.8 6497.95 11871.2 6513.01 11862.9 6523.08 11851.5 6530.21 11839.2 6534.44 11831.3 6537.46 11822.6 6538.2 11814.9 6541.8 11803.2 6547.05 11789.5 6559.65 11780.6 6567.84 11786.4 6565.09 11794.7 6559.92 11801.7 6557.32 11808.8 6554.72 11811.9 6553.19 11822.7 6552.26 11835.9 6551.13 11848.5 6545.82 11859.6 6538.58 11863.8 6535.93 11871 6530.4 11875 6527.64 11869.4 6535.13 11861.1 6542.68 11855.5 6547.35 11844.5 6557.2 11832.2 6566.14 11818 6570.53 11810.1 6572.95 11802.2 6574.94 11794.8 6578.51 11786.6 6582.37 11778.9 6587.26 11772.1 6593.11 11770.7 6594.03 11769.9 6595.94 11771.2 6597.29 11777.7 6606.7 11784.6 6615.89 11790.8 6625.54 11795.7 6633 11799.1 6641.96 11797.5 6651.01 11802.5 6653.46 11808.2 6654.56 11811.8 6659.17 11808.7 6659.54 11805.3 6659.08 11802.5 6660.75 11799.4 6662.89 11800.2 6667.12 11799.8 6670.35 11803.8 6667.52 11808.2 6664.62 11813.4 6664.8 11818.3 6664.69 11822.6 6667.59 11826.4 6670.47 11823 6671.31 11818 6670.73 11816.3 6674.53 11815.4 6676.4 11816.7 6678.41 11818.4 6679.21 11824.8 6681.88 11833.1 6679.28 11838 6684.99 11833.8 6686.3 11828 6684.06 11825.7 6689 11830.6 6692.35 11837.6 6690.88 11841.9 6695.29 11844 6696.97 11844.5 6699.64 11844.9 6702.12 11842.3 6701.81 11839.6 6701.45 11837 6701.1 11837.1 6704.87 11837.4 6708.64 11837.6 6712.43 11841.7 6714.06 11846.2 6713.58 11850.6 6713.54 11853.7 6713.36 11857.2 6713.65 11859.8 6711.46 11858.2 6708.76 11856.2 6706.31 11853.9 6704.12 11859.6 6703.02 11865.5 6704.45 11870.2 6707.89 11877.4 6712.63 11881 6720.71 11884.7 6728.15 11886.9 6732.42 11889 6736.69 11891.1 6740.97 11881.9 6738.83 11869.3 6735.75 11863.4 6735.37 11856.1 6734.9 11852.7 6734.21 11848 6732.15 11850.6 6729.64 11853.1 6730.46 11854.9 6730.05 11857.9 6730.28 11859.2 6728.1 11861.5 6726.57 11857.2 6721.06 11849.7 6721.96 11843.6 6720.43 11841.3 6720.06 11838 6719.08 11837 6721.96 11835 6727.54 11834.4 6733.56 11832.1 6739.05 11828.3 6748.7 11822.1 6757.55 11813.8 6763.81 11808.7 6767.63 11802.1 6768.94 11795.8 6768.8 11799.8 6765.64 11805 6763.01 11806.2 6757.57 11794 6759.4 11783 6763.2 11771.2 6758.26 11767.4 6757.67 11759.3 6753.99 11756 6750.56 11760.1 6750.96 11771.2 6753.68 11776.2 6752.39 11781 6752.41 11785.6 6752.73 11787.1 6750.92 11787.4 6745.31 11782.6 6741.51 11780.6 6736.7 11778.1 6732.28 11777.7 6726.11 11781.5 6722.25 11786 6717.49 11792.8 6716.4 11798.3 6713.12 11794.5 6709.2 11790.8 6705.03 11786.1 6702.16 11782.6 6699.82 11777.8 6701.85 11776.3 6705.6 11773.5 6711.43 11770.4 6717.18 11765.7 6721.69 11760.9 6726.75 11754.1 6729.41 11749.7 6734.93 11744.2 6741.47 11742.6 6750.49 11743.5 6758.83 11744.2 6765.64 11741.7 6772.92 11736 6776.99 11732.1 6779.71 11726.5 6782.51 11721.7 6782.96 11723.8 6780.38 11727.6 6777.67 11729.4 6774.87 11731.3 6771.37 11728.1 6767.51 11724.9 6766.4 11721.4 6765.53 11719.2 6768.78 11717.2 6771.01 11712.9 6776.38 11708.5 6781.7 11704.8 6787.52 11703.3 6789.57 11704.1 6792.51 11706.2 6793.85 11710.8 6796.54 11716.5 6796.68 11720.9 6799.9 11724.5 6802.93 11723.4 6808.14 11723.3 6812.26 11723.2 6816.16 11719.3 6817.89 11716.3 6819.4 11716.3 6817.24 11718 6815.33 11716.3 6812.97 11713.3 6812.5 11709.9 6811.96 11707.9 6809.45 11704.9 6806.56 11702.9 6801.46 11698.1 6801.43 11693.1 6801.61 11687.8 6801.8 11683.4 6799.05 11676.6 6795.64 11674.1 6786.8 11666.4 6784.83 11661.9 6783.07 11657.2 6786.03 11652.7 6785.02 11650.1 6783.03 11651.2 6778.56 11648.2 6777.11 11645.7 6777.17 11643.3 6778.28 11641 6779 11641.8 6773.16 11647 6770.1 11652.2 6768.6 11652.4 6765.78 11650.1 6763.37 11648.2 6761.03L11643.9 6761.67C11644.7 6758.62 11646.5 6755.35 11649.9 6754.83 11655 6754.12 11660.1 6754.66 11665.2 6754.51 11664.1 6751.95 11663.1 6749.35 11662.3 6746.73 11667.7 6745.94 11673.3 6748.32 11676.1 6752.99 11679.4 6759.21 11681.4 6772.69 11684.1 6772.56 11686.7 6772.43 11690.1 6765.59 11694.1 6763.06 11701.3 6757.97 11710.7 6755.03 11715.4 6746.94 11716.7 6744.74 11715.1 6742.52 11714 6740.68 11711.3 6736.94 11712.2 6732.13 11711.3 6727.87 11706.4 6728.08 11697.6 6728.71 11694.8 6729.74 11696.8 6724.22 11707.6 6723.06 11704.9 6718.33 11702.4 6714.02 11701.1 6709.24 11700.2 6704.41 11695.5 6703.81 11691.5 6706.24 11688.4 6709.54 11688.8 6704.97 11691.1 6701.03 11693.3 6697.16 11687 6698.21 11684.6 6704.89 11679.7 6708.06 11679.8 6701.2 11685.1 6696.23 11689.3 6691.48 11686 6690.47 11682.7 6689.42 11679.5 6688.23 11683.1 6686.06 11687.8 6685.87 11691 6682.98 11693.8 6679.64 11689.8 6676.05 11686.8 6674.85 11682.4 6672.93 11678 6675.55 11673.7 6675.67 11667 6675.67 11663.8 6667.23 11656.9 6668.8 11659.7 6673.84 11664.6 6678.16 11664.7 6684.38 11665.5 6689.8 11662.2 6695.47 11656.8 6696.8 11657.1 6694.02 11659.1 6690 11656 6688.12 11653.5 6686.31 11651.3 6684.12 11650.2 6681.22 11646.8 6673.36 11648.8 6664.07 11644.5 6656.51 11642.4 6652.48 11637.9 6650.66 11635 6647.33 11631.6 6643.36 11633.6 6637.42 11630.4 6633.36 11628.5 6630.68 11625 6630.22 11622.3 6628.61 11619.9 6625.56 11621.9 6621.29 11620.3 6617.97 11619 6616.48 11617.1 6615.63 11615.4 6614.58 11616.8 6612.43 11618.6 6610.15 11621.3 6609.72 11625.4 6608.88 11628 6613.54 11631.8 6613.71 11634.3 6611.95 11635.8 6609.13 11637.7 6606.75L11634.4 6604.29C11636.4 6603.28 11638.6 6601.43 11641.1 6602.54 11645.8 6604.46 11645.2 6610.9 11649.5 6613.43 11651.6 6611.04 11650.9 6607.89 11650.4 6605.09 11656.9 6605.41 11660 6611.99 11661.5 6617.44 11662.7 6622.44 11655.8 6623.98 11655.3 6628.56 11654.1 6636.12 11659 6644.07 11666.3 6646.42 11673.5 6648.75 11681.2 6649.5 11688.8 6649.52 11692.6 6649.83 11696.1 6646.32 11694.8 6642.48 11691.8 6629.55 11684.8 6617.54 11675.1 6608.49 11671.3 6604.5 11664.5 6605.62 11661.4 6600.7 11663.9 6601 11666.4 6601.4 11668.9 6601.8 11667 6598.35 11666.3 6593.78 11663 6591.39 11657.7 6590.45 11651.6 6591.57 11647.4 6595.16 11646.1 6596.15 11644.3 6597.91 11642.9 6598.42 11643.7 6594.97 11646.2 6591.11 11649 6588.95 11648 6587.67 11646.9 6585.52 11646 6584.24 11651.3 6585.27 11657.9 6588.05 11661.3 6582.95 11657.4 6581.98 11653.9 6582.61 11650.1 6580.95 11647.5 6579.91 11645 6577.11 11643.1 6575.21 11647.8 6576.35 11654.3 6578.98 11659.2 6576.5 11658 6568.92 11654.3 6561.16 11647.6 6557.02 11645.3 6555.39 11641.8 6555.36 11639.9 6557.58 11637.7 6560.13 11638.2 6563.78 11637.6 6566.9 11637.2 6573.15 11630.7 6578.83 11624.4 6576.45 11625.3 6574.07 11626.7 6571.77 11627 6569.2 11626.5 6567.39 11624.6 6566.49 11623.4 6565.27 11625.9 6559.84 11629.4 6554.52 11629.1 6548.25 11629.6 6540.94 11625.1 6534.52 11624.9 6527.33 11624.6 6523.28 11627.8 6520.31 11629 6516.69 11629.8 6514.19 11628 6512.01 11627.4 6509.71 11626.8 6506.2 11628.8 6502.54 11627.6 6499.13 11625.5 6498.29 11623.2 6497.99 11621 6497.5 11622.8 6495.19 11625.1 6492.82 11628.2 6492.61 11632.4 6491.87 11635 6496.09 11638.7 6497.23 11641.5 6497.9 11645.5 6494.94 11643.9 6491.84 11642.6 6490.16 11640.4 6489.35 11638.8 6488.11 11642.7 6485.73 11648.1 6485.61 11651.4 6489.1 11655.1 6492.51 11651.7 6500.08 11657.4 6501.8 11661.4 6503 11663.1 6498.97 11662.8 6495.66 11665.3 6496.19 11668.8 6497.22 11668.6 6500.52 11668 6506.23 11665.9 6512.24 11661.4 6516.02 11657.8 6518.99 11652.2 6519.04 11649.6 6523.18 11646.9 6527.27 11650.1 6535.38 11655.8 6532.65 11666.1 6526.28 11676.4 6518.92 11682.7 6508.34 11684.8 6505.08 11685.9 6500.75 11683.9 6497.19 11681.3 6492.63 11678.4 6488.2 11675 6484.16 11672.2 6480.5 11667.1 6481.23 11663.1 6480.44 11657.8 6479.74 11653.2 6476.01 11651.2 6471.11 11653.2 6471.26 11655.2 6471.76 11657.2 6471.45 11660.6 6469.92 11663.2 6466.61 11667.1 6466.27 11670.2 6465.75 11674.1 6466.63 11676.1 6463.69 11678.8 6459.68 11679.9 6454.09 11678.3 6449.49 11675.4 6442.93 11669.6 6442.22 11668.8 6440.07 11668.1 6437.91 11669.6 6434.15 11663.1 6431.93 11667.6 6430.24 11673.7 6428.98 11677.9 6432.26 11680.9 6434.15 11681.6 6437.86 11683.4 6440.71 11684.8 6441.99 11687.9 6442.95 11688.1 6440.11 11688.3 6435.74 11685.6 6432.44 11686.3 6427.23 11686.8 6423.92 11683.3 6422.17 11680.1 6420.93 11683.4 6419.54 11688.2 6418.13 11691.9 6419.52 11695.5 6420.91 11698.2 6426.48 11702 6429.28 11702.3 6429.13 11702.9 6428.83 11703.2 6428.68 11702.9 6425.92 11702.3 6423.21 11701.9 6420.5 11707.7 6422.25 11713.7 6427.48 11712.8 6434.05 11709.9 6441.44 11706.1 6448.49 11701.1 6454.66 11698.5 6458.24 11694.9 6462.02 11695.6 6466.82 11696.1 6470.63 11697.9 6474.8 11701.6 6476.51 11703.8 6476.51 11705.5 6474.79 11707.5 6473.87 11711.7 6471.18 11717.1 6470.47 11720.1 6466.2 11722.6 6460.7 11723.2 6463.41 11728.1 6461 11733.1 6458.61 11741.9 6452.55 11747.2 6447.26 11749.9 6445.27 11748.3 6441.35 11746.4 6439.47 11742.1 6436.24 11736.6 6437.88 11731.8 6438.71 11732 6437.77 11732.4 6435.9 11732.6 6434.97 11728.9 6434.76 11724.8 6434.78 11722.1 6431.79 11724.3 6431.54 11726.7 6431.34 11728.9 6430.97 11724.1 6428.13 11716.6 6426.46 11710.7 6424.2 11716.5 6423.79 11724.5 6423.72 11729.9 6423.59 11724.3 6420.57 11718.5 6417.97 11713.5 6414.25 11707 6409.54 11703 6402.54 11698.1 6396.46 11697.8 6398.36 11697.6 6400.26 11697.4 6402.17 11693.4 6395.88 11687.6 6391.24 11682.5 6385.96 11679.7 6382.9 11675.4 6382.24 11671.9 6380.22 11675.1 6379.29 11678.3 6379.09 11681.6 6379.28ZM11462.9 6371.59 11495.4 6371.59 11521.3 6397.41 11585.5 6397.41 11617.6 6429.55 11617.6 6497.23 11583.8 6592.73 11552.9 6642.73 11532.1 6622.96C11548.1 6597.74 11562.2 6572.21 11573.9 6541.96 11573.9 6541.77 11573.9 6541.59 11573.9 6541.41L11573.8 6542.18C11564.9 6552.68 11552.2 6562.07 11541.4 6568.29L11462.8 6521.44 11462.8 6480.48 11473.6 6486.75 11480.6 6474.75 11462.8 6464.49 11462.8 6393.59 11478.7 6393.59 11506.7 6421.17 11569.7 6421.21 11569.7 6421.37 11588.9 6440.57 11588.9 6491.89 11597.2 6435.57 11574.2 6412.61 11510 6412.61 11482 6384.64 11462.9 6384.64ZM11419.8 6371.59 11452.3 6371.59 11452.3 6384.64 11433.3 6384.64 11405.3 6412.61 11341 6412.61 11318.1 6435.57 11326.4 6491.89 11326.4 6440.57 11345.6 6421.37 11345.6 6421.21 11408.6 6421.17 11436.5 6393.59 11452.5 6393.59 11452.5 6464.49 11434.7 6474.75 11441.6 6486.75 11452.5 6480.48 11452.5 6521.44 11373.9 6568.29C11363.1 6562.07 11350.3 6552.68 11341.5 6542.18L11341.4 6541.41C11341.4 6541.59 11341.4 6541.77 11341.4 6541.96 11353.1 6572.21 11367.2 6597.74 11383.2 6622.96L11362.4 6642.73 11331.5 6592.73 11297.6 6497.23 11297.6 6429.55 11329.8 6397.41 11394 6397.41ZM11032.5 6369.64C11032.9 6379.81 11033.8 6387.26 11034.7 6391.71 11037 6406.23 11043.4 6419.77 11051.1 6432.2 11060.7 6447.71 11073.7 6460.94 11088.4 6471.74 11092.3 6474.85 11096.9 6477.11 11100.5 6480.66 11102.7 6482.86 11102 6486.14 11101.5 6488.88 11100.3 6494.29 11101.5 6499.79 11101.7 6505.24 11095.7 6503.9 11090.3 6500.96 11084.7 6498.73 11067.1 6491.33 11051.9 6478.24 11042.7 6461.57 11031.8 6442.57 11028.4 6420.24 11029.6 6398.63 11030.3 6391.85 11030 6376.85 11032.5 6369.64ZM11167.2 6365.27C11164.5 6370.18 11160.5 6374.81 11160.5 6380.68 11160.1 6383.65 11161.6 6387.07 11164.7 6387.86 11170.2 6388.99 11176.7 6387.28 11181.2 6391.26 11184 6393.5 11183.8 6397.74 11186.3 6400.11 11191.1 6400.81 11196.2 6400.81 11200.4 6403.51 11207.8 6407.93 11213.2 6415.41 11216 6423.44 11210.7 6420.93 11205.6 6417.63 11199.8 6416.16 11195.6 6415.56 11192.1 6418.64 11189.4 6421.52 11193.7 6424.65 11199.1 6425.67 11203.8 6427.85 11207.9 6429.34 11211.7 6432.09 11216.2 6432.18 11222.1 6431.9 11226.7 6427.78 11231.4 6424.56 11227.7 6432.2 11219.4 6438.74 11210.6 6437.22 11203.5 6436.02 11196.4 6433.56 11189.1 6434.03 11191.2 6441.85 11200.6 6442.75 11207.2 6444.16 11204.2 6447.72 11198.8 6447.59 11194.7 6449.57 11202 6454.33 11210.2 6458 11216.2 6464.5 11221.1 6469.86 11224.6 6476.3 11228.7 6482.2 11229.3 6480.54 11228.9 6477.86 11231.6 6477.26 11234.4 6476.67 11236.3 6480.98 11239.6 6482.15 11241.7 6482.26 11242.1 6479.88 11242.4 6478.3 11244.1 6467.46 11244.5 6456.31 11247.5 6445.72 11252.7 6432 11266.8 6422.1 11281.5 6422.46 11284.8 6422.52 11287.9 6424.34 11289.7 6427.06 11292.2 6430.88 11294.9 6435.1 11294.4 6439.87 11290.8 6438.8 11286.7 6438.78 11283.4 6436.96 11280.3 6433.98 11283.9 6429.11 11281.3 6425.94 11277.8 6424.24 11275.1 6428.14 11272.6 6429.98 11270.2 6432.48 11266.3 6434.75 11266.5 6438.59 11267.8 6442 11272.3 6441.31 11275.2 6442 11279 6442.01 11279.8 6447.18 11283.8 6447.04 11292.8 6447.49 11296.8 6456.18 11296.2 6463.17 11295 6458.78 11292.5 6457.53 11290.2 6456.56 11288 6455.59 11285.7 6459.39 11282.8 6457.34 11278.7 6455.26 11274.8 6451.09 11269.7 6452.37 11264.5 6454.44 11261.8 6459.94 11259.5 6464.72 11258 6468.48 11257.3 6474.3 11261 6476.86 11265.4 6475.6 11268.8 6472.08 11275.3 6473.44 11268.8 6478.74 11262.7 6483.55 11260.2 6490.9 11257.9 6497.95 11254 6504.27 11250.6 6510.85 11257 6508.34 11262.1 6503.49 11267.3 6499.27 11270.7 6495.96 11275.7 6494.59 11278.3 6490.55 11279.7 6488.89 11280.7 6486.37 11283.1 6485.98 11285.2 6485.47 11287.1 6486.68 11289.1 6487.41L11282.8 6490.76C11286.3 6492.48 11291.3 6492.35 11293.5 6495.61 11295.6 6498.87 11296.2 6506.07 11295.6 6510.32 11292.1 6503.93 11289.9 6499.94 11284.9 6499.22 11279 6498.57 11274 6503.15 11271.4 6507.97 11265.8 6518.3 11266.4 6530.45 11266.7 6541.81 11269.6 6540.23 11271.9 6537.04 11275.5 6536.83 11278.4 6536.43 11283.6 6536.9 11286.3 6537.89 11282.8 6540.8 11277.6 6541.27 11274.7 6543.73 11267.8 6548.55 11265.5 6557.1 11263.2 6564.77 11262 6569.46 11258.8 6573.18 11255.2 6576.31 11263.2 6576.92 11273.4 6577.66 11276.9 6586.29 11272.1 6584.68 11267.1 6581.27 11261.9 6583.42 11254.7 6586.48 11251 6594.5 11243.8 6597.76 11240.9 6598.92 11237.7 6598.45 11234.7 6598.42 11238.7 6603.05 11243.1 6607.59 11245.2 6613.51 11250.4 6625.57 11245.7 6639.2 11250.2 6651.43 11251.3 6654.71 11254.5 6657.64 11258.1 6657.09 11261.9 6656.45 11264.6 6653.57 11267.9 6651.86 11266.9 6656.51 11265.2 6661.29 11261.7 6664.6 11256.8 6668.96 11250.2 6670.42 11244.4 6673.1 11243.3 6675.63 11246.5 6676.22 11248.3 6676.87 11257.9 6679.27 11267.9 6680.9 11277.9 6679.9 11281.3 6679.41 11285.4 6679.91 11287.1 6683.35 11289.9 6689.37 11287.8 6696.15 11287.8 6702.48 11297.8 6701 11306.6 6695.26 11316.5 6693 11323.1 6691.85 11329.3 6696.78 11331.6 6702.71 11334.2 6709.43 11332.4 6716.9 11329.6 6723.26 11326 6730.95 11319.8 6738.35 11321.6 6747.45 11316.7 6742.33 11314.2 6735.52 11313.8 6728.56 11313 6724.11 11313.8 6718.38 11309.8 6715.34 11307 6713.81 11304 6715.8 11301.8 6717.53 11295.1 6723.22 11289.5 6730.02 11283.2 6736.12 11279.6 6739.59 11274 6742.09 11269.1 6739.67 11263.2 6736.76 11260.1 6730.27 11259.1 6724.04 11257.4 6718.7 11250.9 6719.78 11246.6 6718.98 11240.1 6717.3 11239.4 6709.31 11234.3 6705.91 11232.6 6704.87 11230.4 6702.82 11228.5 6704.66 11227.7 6706.43 11227.1 6708.94 11227.8 6711.25 11225.8 6710.25 11224 6707.92 11223.5 6706.15 11220.8 6698.06 11219.4 6689.31 11220.9 6680.82 11222 6673.12 11225.4 6666.03 11227.4 6658.57 11228.9 6654.46 11230.3 6650.82 11227.7 6648.91 11225.2 6646.99 11219.5 6657.36 11218.4 6663.39 11217.5 6665.92 11217.3 6669.52 11214.4 6674.01 11214.4 6667.34 11215.9 6655.85 11209.9 6651.22 11206.6 6648.71 11200.2 6646.66 11197.4 6650.53 11198.5 6658.52 11205.6 6664.55 11206.9 6672.68 11208.5 6678.6 11204.6 6684.52 11206.4 6690.36 11208.2 6695.55 11216.7 6699.94 11216.4 6702.15 11216.1 6704.35 11208.6 6711.73 11206.9 6718.07 11205.6 6722.47 11208.4 6727.03 11212.3 6728.94 11217.7 6731.58 11223.7 6732.51 11229.4 6734.41 11223.3 6738.06 11216.4 6740.88 11209.2 6740.74 11203.4 6740.78 11197.7 6738.79 11192.5 6736.14 11190.9 6739.18 11189.3 6742.2 11187.7 6745.24 11192.9 6749.03 11198.3 6752.54 11203.3 6756.65 11209.4 6761.62 11214.2 6771.98 11214.9 6779.88 11210.9 6774.77 11208.1 6768.61 11203.9 6765.46 11192.9 6756.71 11178.3 6756.66 11166.2 6761.51 11163.7 6760.5 11163.5 6759.63 11161.9 6759.29 11160.2 6758.96 11159.9 6759.3 11158.9 6759.19 11159.2 6763.61 11161.8 6768.11 11160 6772.52 11157.5 6778.55 11150.9 6781.4 11148 6787.14 11147.1 6789.14 11147.8 6791.56 11149.7 6792.78 11153.6 6795.83 11159 6798.46 11164.2 6799.14 11159.5 6803.37 11151.1 6803.86 11145.2 6801.88 11140.4 6800.4 11136.9 6796.48 11132.2 6794.92 11134.1 6803.44 11141.7 6809.3 11149.9 6811.19 11155.4 6812.96 11162.7 6812.91 11166 6818.46 11167.8 6821.47 11165.5 6825.71 11162.9 6828.44 11163 6825.13 11160.4 6820.45 11156.8 6821.45 11146.9 6823.88 11138.3 6831.42 11127.7 6831.3 11119 6831.4 11111.1 6824.44 11109.4 6815.96 11108.4 6811.21 11109.7 6806.34 11111.5 6801.96 11116.2 6791.91 11121.6 6782.27 11126.1 6772.15 11129.3 6765.45 11123.9 6755.8 11116.1 6756.57 11108.7 6757.45 11102.6 6762.12 11096.4 6765.94 11094.9 6766.96 11092.2 6768.73 11090 6769.73 11092 6765.7 11094.9 6759.18 11098.2 6756.04 11101.2 6753.54 11104.8 6751.85 11108.2 6749.81 11101.7 6742.56 11092 6740.09 11084.6 6734.07 11088.2 6732.34 11092.4 6730.35 11093.5 6726.08 11094.6 6720.33 11090.1 6715.51 11086.1 6712.03 11082.9 6708.89 11077.1 6708 11071.7 6705.11 11082.3 6705.33 11096.4 6707.67 11105.2 6714 11110.9 6717.96 11115.2 6723.53 11118.6 6729.52 11120 6724.94 11121.8 6720.23 11125.3 6716.82 11128.4 6713.58 11132.7 6711.92 11136.9 6710.52 11135.9 6713.38 11134.6 6716.21 11134.2 6719.26 11134.1 6722.45 11136.5 6725.29 11139.6 6726 11150.2 6728.77 11162.3 6722.58 11165.9 6712.12 11168.6 6704.95 11168.4 6695.23 11162.1 6690.03 11158.4 6695.35 11153.4 6700.91 11146.4 6700.95 11141.2 6700.69 11135.2 6699.84 11131.3 6695.98 11138.2 6694 11146.4 6692.87 11150.9 6686.62 11155.6 6679.85 11153.8 6670.95 11151.8 6663.55 11149.4 6654.9 11138.3 6650.86 11130.8 6655.83 11121.6 6662.1 11114.6 6671.51 11104 6675.77 11096.9 6678.69 11088.7 6679.54 11081.3 6677.25 11073.5 6674.64 11067.4 6665.03 11071.6 6657.11 11075.6 6650.43 11082.6 6645.9 11086.3 6638.99 11087.8 6635.8 11084 6633.67 11081.3 6634.02 11069.8 6635.32 11059.3 6642.79 11047.4 6640.86 11040.9 6639.51 11032.1 6633.58 11028.5 6627.81 11035.7 6632.66 11041.8 6634.06 11046.3 6634.53 11050.9 6635.01 11053 6632.47 11055.9 6630.65 11048.3 6629.5 11040.7 6626.49 11035.8 6620.41 11029.4 6613.11 11025.9 6599.98 11024.6 6590.62 11027.7 6595.25 11029.9 6600.83 11032.4 6604.06 11038.7 6613.51 11049.5 6619.09 11060.5 6620.99 11073.8 6623.55 11087.6 6619.22 11100.8 6622.99 11104.4 6623.91 11106 6628.41 11104 6631.53 11099.1 6640.22 11092.4 6647.76 11085.5 6654.94 11083.5 6657.29 11080.8 6659.98 11081.4 6663.4 11082.2 6667.43 11086.5 6670.21 11090.5 6669.76 11096.1 6669.48 11100.6 6665.74 11105.1 6662.84 11114.8 6656.43 11123.7 6648.34 11128.9 6637.79 11133.2 6629.12 11137.2 6620.29 11142.1 6611.93 11130.9 6612.97 11113.5 6613.59 11102.3 6612.02 11109.5 6610.61 11118.6 6610.52 11123.7 6609.09 11130.6 6608.17 11137.4 6601.74 11140.6 6596.41 11142.9 6592.44 11139.6 6590.48 11136 6587.69 11130.1 6583.04 11116 6575.03 11102.4 6572.18 11083.1 6567.44 11067.4 6554.52 11053.4 6541.1 11050.2 6537.71 11045.8 6535.23 11044 6530.75 11051.3 6535.02 11057.6 6540.85 11065.3 6544.33 11081 6552.53 11099.5 6551.26 11115.7 6558.1 11120.7 6560.02 11125.2 6563.1 11130.1 6565.32 11128.5 6561.72 11125.3 6559.41 11122.6 6556.79 11114.1 6548.85 11104.2 6542.08 11092.9 6538.91 11082.1 6535.83 11070.8 6533.69 11061.2 6527.6 11043.7 6517.14 11032.8 6498.65 11026.6 6479.75 11022.6 6466.98 11018.8 6449.53 11018 6436.15 11020.9 6441.29 11020.1 6443.88 11025.8 6452.65 11031.5 6461.41 11039.7 6475.61 11052.3 6488.72 11058.6 6495.05 11065.4 6501.21 11073.9 6504.49 11083.9 6508.52 11094.6 6510.87 11104.4 6515.61 11110.6 6518.22 11116.1 6522.29 11122 6525.55 11117.9 6518.41 11114 6511.01 11112.4 6502.81 11110.7 6495.08 11111.1 6487.05 11112.7 6479.35 11116.2 6485.83 11119.4 6492.54 11124 6498.32 11131.2 6507.56 11140.3 6515.25 11150.3 6521.37 11151.8 6522.79 11153.1 6520.78 11153.7 6519.57 11156.9 6513.41 11159.8 6506.34 11158 6499.32 11156.4 6492.91 11151.5 6488.2 11146.9 6483.83 11140 6477.05 11132.5 6470.28 11128.7 6461.2 11125.4 6453.94 11124.6 6445.93 11124.4 6438.07 11119.8 6441 11113.5 6443.09 11108.8 6439.22 11111.9 6438.07 11116.3 6438.24 11118 6434.91 11119.8 6429.87 11114 6426.4 11114.2 6421.53 11114.2 6418.83 11114.4 6416.16 11114.5 6413.47 11108.9 6412.15 11103.9 6407.79 11102.7 6402.03 11107.1 6403.72 11111.3 6406.72 11116.2 6406.69 11123.3 6405.92 11129.3 6400.05 11131 6393.18 11127.2 6390.72 11122.3 6390.43 11118.9 6387.26 11115.8 6384.7 11114.1 6380.79 11114.3 6376.77 11118 6380.61 11121.5 6386.27 11127.7 6385.82 11134.2 6384.99 11140.7 6383.85 11147.2 6382.69 11154.6 6377.9 11159 6369.09 11167.2 6365.27ZM11883 6364.48C11885.5 6371.7 11885.1 6386.7 11885.8 6393.47 11887.1 6415.09 11883.6 6437.41 11872.8 6456.41 11863.5 6473.09 11848.3 6486.18 11830.8 6493.58 11825.1 6495.8 11819.7 6498.74 11813.8 6500.08 11814 6494.63 11815.1 6489.13 11814 6483.72 11813.5 6480.99 11812.8 6477.71 11815 6475.51 11818.6 6471.96 11823.2 6469.69 11827.1 6466.58 11841.8 6455.79 11854.8 6442.56 11864.3 6427.05 11872 6414.61 11878.4 6401.08 11880.8 6386.56 11881.6 6382.1 11882.6 6374.65 11883 6364.48ZM11500 6227.82C11503.2 6227.82 11505.8 6230.45 11505.8 6233.69 11505.8 6236.93 11503.2 6239.56 11500 6239.56 11496.7 6239.56 11494.1 6236.93 11494.1 6233.69 11494.1 6230.45 11496.7 6227.82 11500 6227.82ZM11415.5 6227.82C11418.8 6227.82 11421.4 6230.45 11421.4 6233.69 11421.4 6236.93 11418.8 6239.56 11415.5 6239.56 11412.3 6239.56 11409.7 6236.93 11409.7 6233.69 11409.7 6230.45 11412.3 6227.82 11415.5 6227.82ZM11688.8 6206.67 11647 6341.15 11758.7 6229.94 11686.2 6347.08 11823.6 6276.06 11717.1 6369.64 11585.5 6369.64 11585.5 6355.13 11599.2 6355.13ZM11226.6 6206.67 11316.3 6355.13 11330 6355.13 11330 6369.64 11198.3 6369.64 11091.9 6276.06 11229.2 6347.08 11156.7 6229.94 11268.5 6341.15ZM11457.6 6197.69 11459.1 6197.88C11462.5 6198.87 11462.8 6202.82 11463.7 6204.68 11464.7 6206.81 11467.4 6206.28 11467.3 6210.43 11467.3 6213.61 11464.9 6220.75 11463.9 6225.76L11463.6 6227.13 11464.5 6226.95C11469.2 6225.8 11474.8 6224.04 11477.5 6224 11481.7 6223.95 11481.2 6226.61 11483.3 6227.62 11485.2 6228.5 11489.1 6228.86 11490.1 6232.25L11490.3 6233.69 11490.1 6235.13C11489.1 6238.52 11485.2 6238.88 11483.3 6239.76 11481.2 6240.77 11481.7 6243.43 11477.5 6243.38 11474.8 6243.35 11469.2 6241.58 11464.5 6240.43L11462.4 6240.01 11462.7 6242.54C11463.6 6249.09 11465.5 6258.43 11465.5 6262.59 11465.6 6266.66 11464.4 6267.29 11463.4 6268.52L11463.2 6268.85 11469.5 6268.85 11469.5 6268.89 11470.3 6268.89C11471 6268.96 11471.8 6269.1 11472.6 6269.31 11476.4 6270.38 11479.3 6273.13 11480.5 6276.43L11481.1 6278.47C11481.3 6279.86 11481.2 6281.3 11480.8 6282.72 11480.2 6284.85 11479 6286.64 11477.3 6287.95L11476.5 6288.43 11475.9 6286.43C11474.2 6283.01 11470.8 6281.21 11468.4 6282.42L11467.8 6282.77 11466.5 6284.15C11465.7 6285.47 11465.1 6286.92 11464.8 6288.5L11464.7 6289.1 11464.6 6289.07 11464.7 6289.1 11464.5 6291.64C11464.8 6298.93 11471.2 6305.7 11480.2 6307.58 11489.2 6309.47 11497.8 6305.83 11501 6299.27L11501.2 6298.71C11501.2 6298.71 11501.2 6298.71 11501.2 6298.71L11502 6296.28 11502.3 6293.33 11502.1 6292.73 11501.4 6290.91C11501 6290.15 11500.4 6289.5 11499.6 6289 11497.2 6287.51 11494.2 6287.9 11491.8 6289.72L11491.6 6290.01 11491.3 6289.78C11490.3 6288.53 11489.8 6287.03 11489.8 6285.41 11489.8 6283.26 11490.8 6281.3 11492.5 6279.89L11493 6279.6 11495.4 6278.22C11496.5 6277.82 11497.7 6277.6 11499 6277.6 11500.2 6277.6 11501.4 6277.82 11502.5 6278.22L11505 6279.62 11504.8 6278.01C11504.9 6276.63 11504.9 6275.52 11505.4 6273.61 11505.9 6271.71 11506.9 6268.45 11507.9 6266.59 11509 6264.73 11511.1 6262.77 11511.7 6262.43 11512.4 6262.09 11513.6 6261.62 11514.4 6261.72 11515.2 6261.82 11516.1 6262.55 11516.6 6263.04 11517.6 6263.96 11518.4 6265.75 11519.2 6268.09 11520 6270.21 11520.4 6273.08 11520.2 6276.21 11519.9 6280.11 11518.8 6283.49 11517.2 6285.42L11517.6 6284.96C11519.4 6283.13 11521.7 6282.09 11523.9 6281.88 11526.1 6281.67 11528.2 6282.3 11529.7 6283.81 11530.5 6284.57 11531 6285.48 11531.3 6286.47L11531.5 6287.21 11531.7 6288.01C11531.9 6290.66 11530.9 6293.64 11528.6 6295.93L11526.5 6297.44 11526.3 6296.7C11525.1 6294.33 11523.3 6292.87 11521.6 6293.22 11521 6293.33 11520.5 6293.63 11520 6294.08L11519.3 6295.39 11518.9 6296.53 11518.7 6297.53 11518.6 6298.43 11518.6 6298.55C11518.6 6298.51 11518.6 6298.47 11518.6 6298.42L11518.6 6298.42C11518.6 6298.47 11518.6 6298.51 11518.6 6298.55L11518.5 6299.49C11518.5 6305.51 11523.3 6311.1 11530.3 6312.64 11535.2 6313.75 11540 6312.52 11543.4 6309.76L11543.4 6309.73 11543.4 6309.73 11545.2 6307.92C11546.2 6306.58 11547 6305.02 11547.4 6303.28 11547.6 6302.41 11547.7 6301.55 11547.6 6300.69L11547.4 6298.97 11547.4 6298.86 11546.4 6297.03C11544.3 6295.03 11540.2 6295.88 11537.3 6298.93L11536.3 6300.34 11535.9 6298.95C11535.2 6295.15 11535.7 6291.49 11537.2 6288.63L11537.6 6288.08 11538.5 6286.66C11539.9 6284.85 11541.9 6283.59 11544.1 6283.17 11544.8 6283.03 11545.6 6282.99 11546.3 6283.04 11551.5 6283.4 11556.2 6288.25 11557.4 6294.9 11557.6 6295.85 11557.7 6296.79 11557.7 6297.71 11557.7 6298.18 11557.7 6298.65 11557.7 6299.11L11557.8 6297.63C11559.2 6291.6 11565.1 6287.07 11572.1 6287.07 11580.1 6287.07 11586.6 6292.99 11586.6 6300.29L11586.6 6301.03 11586.6 6301 11585.1 6300.51C11582.8 6299.91 11580.4 6299.59 11578 6299.59 11572 6299.59 11566.3 6301.57 11561.4 6305.05L11559.4 6306.62 11559.4 6306.62 11558.5 6307.31C11549.2 6315.44 11543.1 6329.21 11543.1 6344.82 11543.1 6347.94 11543.3 6350.99 11543.8 6353.93L11544.5 6357.21 11371 6357.21 11371.7 6353.93C11372.1 6350.99 11372.4 6347.94 11372.4 6344.82 11372.4 6329.21 11366.3 6315.44 11357 6307.31L11356.1 6306.62 11356.1 6306.62 11354.1 6305.05C11349.1 6301.57 11343.5 6299.59 11337.4 6299.59 11335 6299.59 11332.7 6299.91 11330.4 6300.51L11328.9 6301 11328.8 6301.03 11328.8 6300.29C11328.8 6292.99 11335.3 6287.07 11343.4 6287.07 11350.4 6287.07 11356.3 6291.6 11357.6 6297.63L11357.8 6299.11C11357.8 6298.65 11357.8 6298.18 11357.7 6297.71 11357.8 6296.79 11357.9 6295.85 11358 6294.9 11359.3 6288.25 11364 6283.4 11369.2 6283.04 11369.9 6282.99 11370.6 6283.03 11371.4 6283.17 11373.6 6283.59 11375.5 6284.85 11377 6286.66L11377.9 6288.08 11378.2 6288.63C11379.7 6291.49 11380.3 6295.15 11379.6 6298.95L11379.2 6300.34 11378.2 6298.93C11375.3 6295.88 11371.2 6295.03 11369.1 6297.03L11368 6298.86C11368 6298.9 11368 6298.93 11368 6298.97L11367.8 6300.69C11367.8 6301.55 11367.9 6302.41 11368.1 6303.28 11368.5 6305.02 11369.3 6306.58 11370.3 6307.92L11372.1 6309.73 11372.1 6309.73 11372.1 6309.76C11375.4 6312.52 11380.3 6313.75 11385.2 6312.64 11392.1 6311.1 11396.9 6305.51 11397 6299.49L11396.9 6298.55C11396.9 6298.51 11396.9 6298.47 11396.9 6298.42L11396.9 6298.42 11396.9 6298.55C11396.9 6298.51 11396.9 6298.47 11396.9 6298.43L11396.8 6297.53 11396.6 6296.53 11396.2 6295.39 11395.4 6294.08C11395 6293.63 11394.5 6293.33 11393.9 6293.22 11392.2 6292.87 11390.3 6294.33 11389.2 6296.7L11389 6297.44 11386.9 6295.93C11384.6 6293.64 11383.5 6290.66 11383.8 6288.01L11384 6287.21 11384.1 6286.47C11384.5 6285.48 11385 6284.57 11385.8 6283.81 11387.3 6282.3 11389.4 6281.67 11391.6 6281.88 11393.8 6282.09 11396 6283.13 11397.9 6284.96L11398.3 6285.42C11396.7 6283.49 11395.5 6280.11 11395.2 6276.21 11395 6273.08 11395.4 6270.21 11396.3 6268.09 11397.1 6265.75 11397.9 6263.96 11398.9 6263.04 11399.4 6262.55 11400.3 6261.82 11401.1 6261.72 11401.9 6261.62 11403.1 6262.09 11403.7 6262.43 11404.4 6262.77 11406.5 6264.73 11407.6 6266.59 11408.6 6268.45 11409.5 6271.71 11410 6273.61 11410.6 6275.52 11410.6 6276.63 11410.6 6278.01L11410.5 6279.62 11412.9 6278.22C11414 6277.82 11415.2 6277.6 11416.5 6277.6 11417.8 6277.6 11419 6277.82 11420.1 6278.22L11422.5 6279.6 11423 6279.89C11424.7 6281.3 11425.7 6283.26 11425.7 6285.41 11425.7 6287.03 11425.1 6288.53 11424.1 6289.78L11423.9 6290.01 11423.6 6289.72C11421.3 6287.9 11418.2 6287.51 11415.9 6289 11415.1 6289.5 11414.5 6290.15 11414 6290.91L11413.4 6292.73 11413.2 6293.33 11413.4 6296.28 11414.3 6298.71C11414.3 6298.71 11414.3 6298.71 11414.3 6298.71L11414.4 6299.27C11417.6 6305.83 11426.2 6309.47 11435.2 6307.58 11444.3 6305.7 11450.7 6298.93 11451 6291.64L11450.8 6289.1 11450.8 6289.07 11450.8 6289.1 11450.7 6288.5C11450.4 6286.92 11449.8 6285.47 11448.9 6284.15L11447.7 6282.77 11447.1 6282.42C11444.6 6281.21 11441.3 6283.01 11439.6 6286.43L11438.9 6288.43 11438.2 6287.95C11436.5 6286.64 11435.3 6284.85 11434.7 6282.72 11434.3 6281.3 11434.2 6279.86 11434.4 6278.47L11434.9 6276.43C11436.2 6273.13 11439.1 6270.38 11442.9 6269.31 11443.7 6269.1 11444.4 6268.96 11445.2 6268.89L11446 6268.89 11446 6268.85 11452.1 6268.85 11451.9 6268.52C11450.9 6267.29 11449.7 6266.66 11449.7 6262.59 11449.8 6258.43 11451.7 6249.09 11452.6 6242.54L11452.8 6239.96 11449 6240.89C11444.7 6242 11440.1 6243.35 11437.7 6243.38 11433.6 6243.43 11434.1 6240.77 11432 6239.76 11430.1 6238.88 11426.2 6238.52 11425.2 6235.13L11425 6233.69 11425.2 6232.25C11426.2 6228.86 11430.1 6228.5 11432 6227.62 11434.1 6226.61 11433.6 6223.95 11437.7 6224 11440.5 6224.04 11446.1 6225.8 11450.8 6226.95L11451.7 6227.15 11451.4 6225.76C11450.4 6220.75 11448 6213.61 11447.9 6210.43 11447.9 6206.28 11450.6 6206.81 11451.6 6204.68 11452.5 6202.82 11452.8 6198.87 11456.2 6197.88ZM11457.6 6182C11460.9 6182 11463.5 6184.63 11463.5 6187.87 11463.5 6191.11 11460.9 6193.73 11457.6 6193.73 11454.4 6193.73 11451.8 6191.11 11451.8 6187.87 11451.8 6184.63 11454.4 6182 11457.6 6182Z" fill="#CFF041" fill-rule="evenodd"/></g></svg>