<svg width="793" height="797" xmlns="http://www.w3.org/2000/svg" xmlns:xlink="http://www.w3.org/1999/xlink" xml:space="preserve" overflow="hidden"><g transform="translate(-11060 -3848)"><path d="M11784.7 4532.85 11805.9 4532.85 11816.6 4551.26 11795.3 4551.26ZM11107.1 4532.85 11128.3 4532.85 11117.7 4551.26 11096.4 4551.26ZM11550.4 4527.98C11551.1 4543.87 11550.2 4563.72 11541.2 4577.4 11531.7 4590.28 11520.6 4596.46 11508.6 4606.73 11496.7 4617.01 11499.8 4618.76 11497.2 4623.75 11494.5 4616.34 11493.2 4608.53 11491.9 4600.76 11489.6 4587.35 11495.8 4572.9 11507.1 4565.3 11518 4557.86 11528.4 4549.6 11538.4 4541.02 11542.5 4537.76 11546.2 4531.87 11550.4 4527.98ZM11362.6 4527.98C11366.8 4531.87 11370.5 4537.76 11374.6 4541.02 11384.6 4549.6 11395 4557.86 11405.9 4565.3 11417.2 4572.9 11423.4 4587.35 11421.1 4600.76 11419.8 4608.53 11418.5 4616.34 11415.8 4623.75 11413.2 4618.76 11416.3 4617.01 11404.4 4606.73 11392.4 4596.46 11381.3 4590.28 11371.8 4577.4 11362.8 4563.72 11361.9 4543.87 11362.6 4527.98ZM11451.8 4525.77C11451.8 4535.13 11455.7 4565.48 11456.5 4584.84 11457.3 4565.48 11461.2 4535.13 11461.2 4525.77 11459.7 4526.57 11458.5 4528.08 11456.5 4528.18 11454.5 4528.08 11453.3 4526.57 11451.8 4525.77ZM11684.6 4477.16 11695.2 4495.57 11716.5 4495.57 11705.9 4477.16ZM11207.1 4477.16 11196.5 4495.57 11217.8 4495.57 11228.4 4477.16ZM11667.4 4381.01 11742.2 4510.38 11574.2 4510.38 11575.8 4507.82C11583.2 4494.4 11590.8 4480.29 11591.7 4464.64 11592.9 4449.78 11589 4428.09 11582.7 4418.65 11590.5 4418.19 11598.2 4414.8 11606.1 4416.73 11613.6 4418.33 11622.2 4421.17 11629.4 4416.98 11634.2 4414.58 11637.5 4409.83 11638.8 4404.65 11640.6 4396.38 11648.9 4392.59 11655.6 4388.78 11659.5 4386.62 11663.4 4384.15 11667 4381.38ZM11245.6 4381.01 11246 4381.38C11249.6 4384.15 11253.5 4386.62 11257.4 4388.78 11264.1 4392.59 11272.4 4396.38 11274.2 4404.65 11275.5 4409.83 11278.8 4414.58 11283.6 4416.98 11290.8 4421.17 11299.4 4418.33 11306.9 4416.73 11314.8 4414.8 11322.5 4418.19 11330.3 4418.65 11324 4428.09 11320.1 4449.78 11321.3 4464.64 11322.2 4480.29 11329.8 4494.4 11337.2 4507.82L11338.8 4510.38 11170.8 4510.38ZM11693.3 4363.3C11693.6 4363.25 11693.9 4363.24 11694.3 4363.31 11694.9 4363.44 11695.5 4363.88 11696.2 4364.78L11792.3 4531.1 11781.6 4531.1 11786.9 4540.3 11566 4540.3 11565.2 4537.92C11563.6 4533.31 11561.8 4528.7 11561.7 4524.1 11563.1 4522.97 11564.4 4521.79 11565.8 4520.55L11565.9 4520.38 11761.9 4520.38 11679 4376.92C11678.1 4374.54 11678.3 4372.03 11678.9 4370.23 11679.6 4368.43 11681.8 4366.67 11683 4366.48 11684.5 4367.21 11685.1 4369.59 11686.7 4369.11 11688.2 4368.63 11689.8 4364.14 11692.2 4363.61 11692.6 4363.47 11692.9 4363.36 11693.3 4363.3ZM11219.7 4363.3C11220.1 4363.36 11220.4 4363.47 11220.8 4363.61 11223.2 4364.14 11224.8 4368.63 11226.3 4369.11 11227.9 4369.59 11228.5 4367.21 11230 4366.48 11231.2 4366.67 11233.4 4368.43 11234.1 4370.23 11234.7 4372.03 11234.9 4374.54 11234 4376.92L11151.1 4520.38 11347.1 4520.38 11347.2 4520.55C11348.6 4521.79 11349.9 4522.97 11351.3 4524.1 11351.2 4528.7 11349.4 4533.31 11347.8 4537.92L11347 4540.3 11126.1 4540.3 11131.4 4531.1 11120.7 4531.1 11216.8 4364.78C11217.5 4363.88 11218.1 4363.44 11218.7 4363.31 11219.1 4363.24 11219.4 4363.25 11219.7 4363.3ZM11496.2 4326.66C11493.3 4328.03 11489.1 4334.03 11485.6 4341.5 11482.1 4348.97 11478.5 4364.83 11475.3 4371.48 11473.7 4376.23 11468.8 4378.83 11466.4 4380.83 11465.1 4383.48 11463.9 4395.11 11463.4 4398.41 11465.7 4397.3 11464.2 4385.31 11471.2 4386.08 11473.9 4387.89 11475.1 4392.21 11477 4394.07 11477.7 4389.67 11479.9 4379.85 11487 4359.11 11491.1 4349.99 11493.7 4343.32 11496.4 4338.61 11500.4 4331.99 11498.5 4327.09 11496.2 4326.66ZM11416.8 4326.66C11414.5 4327.09 11412.6 4331.99 11416.6 4338.61 11419.3 4343.32 11421.9 4349.99 11426 4359.11 11433.1 4379.85 11435.3 4389.67 11436 4394.07 11437.9 4392.21 11439.1 4387.89 11441.8 4386.08 11448.8 4385.31 11447.3 4397.3 11449.6 4398.41 11449.1 4395.11 11447.9 4383.48 11446.6 4380.83 11444.2 4378.83 11439.3 4376.23 11437.7 4371.48 11434.5 4364.83 11430.9 4348.97 11427.4 4341.5 11423.9 4334.03 11419.6 4328.03 11416.8 4326.66ZM11659.5 4317.84C11656 4327.97 11655.6 4338.83 11653.9 4349.35 11659.4 4347.7 11664.2 4343.6 11666.4 4338.29 11668.7 4330.82 11665.8 4322.42 11659.5 4317.84ZM11253.5 4317.84C11247.2 4322.42 11244.3 4330.82 11246.6 4338.29 11248.8 4343.6 11253.6 4347.7 11259.1 4349.35 11257.4 4338.83 11257 4327.97 11253.5 4317.84ZM11576.8 4293.34C11572.8 4293.51 11568.9 4294.23 11564.8 4295.65 11557.5 4298.16 11548.8 4303.09 11542.4 4308.97 11540.4 4310.64 11539.1 4312.89 11538 4315.14 11546.4 4313.69 11552.5 4312.4 11560.9 4312.49 11569.5 4312.2 11580.6 4312.28 11588.4 4314.69 11596.3 4317.1 11602.6 4321.45 11608.1 4326.97 11612.6 4333.07 11607.4 4340.61 11606.4 4343.95 11600.5 4355.2 11596.5 4360.13 11584.7 4364.41 11590 4369.14 11593 4374.16 11598.4 4373.03 11601.9 4372.89 11604.7 4368.87 11605.7 4365.86 11608.5 4358.9 11610.3 4349.58 11614.3 4346.62 11620.1 4342.31 11623.3 4333.56 11622.6 4325.94 11621.3 4316.83 11617.2 4307.82 11609.9 4301.86 11603.4 4296.34 11593.7 4294.89 11586.2 4293.85 11584.3 4293.59 11582.5 4293.42 11580.7 4293.34 11579.4 4293.28 11578.1 4293.28 11576.8 4293.34ZM11336.2 4293.34C11334.9 4293.28 11333.6 4293.28 11332.3 4293.34 11330.5 4293.42 11328.7 4293.59 11326.8 4293.85 11319.3 4294.89 11309.6 4296.34 11303.1 4301.86 11295.8 4307.82 11291.7 4316.83 11290.4 4325.94 11289.7 4333.56 11292.9 4342.31 11298.7 4346.62 11302.7 4349.58 11304.5 4358.9 11307.3 4365.86 11308.3 4368.87 11311.1 4372.89 11314.6 4373.03 11320 4374.16 11323 4369.14 11328.3 4364.41 11316.5 4360.13 11312.5 4355.2 11306.6 4343.95 11305.6 4340.61 11300.4 4333.07 11304.9 4326.97 11310.4 4321.45 11316.7 4317.1 11324.6 4314.69 11332.4 4312.28 11343.5 4312.2 11352.1 4312.49 11360.5 4312.4 11366.6 4313.69 11375 4315.14 11373.9 4312.89 11372.6 4310.64 11370.6 4308.97 11364.2 4303.09 11355.5 4298.16 11348.2 4295.65 11344.1 4294.23 11340.2 4293.51 11336.2 4293.34ZM11455.5 4208.66 11456.5 4208.85 11456.5 4208.85 11457.5 4208.66C11459.2 4208.66 11460.7 4209.34 11461.8 4210.45L11462.1 4210.78 11482.9 4238.28 11482.9 4238.33 11497.6 4257.75 11466.6 4305.9C11460.9 4314.36 11459.5 4317.86 11456.5 4317.88L11456.5 4317.88C11453.5 4317.86 11452.1 4314.36 11446.4 4305.9L11415.4 4257.75 11430.1 4238.33 11430.1 4238.28 11450.9 4210.78 11451.2 4210.45C11452.3 4209.34 11453.8 4208.66 11455.5 4208.66ZM11818.4 4152.44 11839 4157.95 11823.9 4172.98 11803.4 4167.48ZM11094.6 4152.44 11109.6 4167.48 11089.1 4172.98 11074 4157.95ZM11456.5 4075.64 11445.9 4094.05 11456.5 4112.46 11467.1 4094.05ZM11456.5 4045.96 11542.9 4195.57 11542.1 4197.34C11540.4 4200.82 11538.5 4204.23 11536.8 4207.4 11533.9 4212.74 11527.8 4214.85 11523.2 4218.42 11513.3 4225.59 11513.9 4232.44 11504.5 4247.02L11504.4 4247.22 11465.9 4196.53 11465.4 4195.85C11463.1 4193.59 11460 4192.19 11456.5 4192.19L11456.5 4192.19C11453 4192.19 11449.9 4193.59 11447.6 4195.85L11447.1 4196.53 11408.6 4247.22 11408.5 4247.02C11399.1 4232.44 11399.7 4225.59 11389.8 4218.42 11385.2 4214.85 11379.1 4212.74 11376.2 4207.4 11374.5 4204.23 11372.6 4200.82 11370.9 4197.34L11370.1 4195.57ZM11451.2 3989.21 11456.5 3998.41 11456.5 3998.41 11461.8 3989.21 11556.1 4152.43C11555 4157.06 11556 4164.16 11550.3 4165.07 11547.5 4168.12 11548.9 4175.28 11548.1 4180.39L11456.5 4021.79 11364.9 4180.39C11364.1 4175.28 11365.5 4168.12 11362.7 4165.07 11357 4164.16 11358 4157.06 11356.9 4152.43ZM11456.5 3958.08 11467.1 3976.49 11456.5 3994.9 11445.9 3976.49ZM11086.6 3848.01C11087.5 3847.95 11088.5 3848.11 11089.5 3848.58 11094.1 3850.33 11095 3855.79 11095 3860.12 11095 3872.14 11095.3 3884.17 11094.7 3896.18 11091.7 3922.97 11095.4 3950.41 11104.8 3975.63 11108.1 3985.64 11112.5 3995.29 11118.1 4004.22 11133.3 4030.02 11151.3 4054.07 11170.5 4077.01 11175 4082.18 11176 4089.83 11181.7 4094.03 11186.1 4097.26 11191.4 4098.91 11196.4 4101 11210.3 4106.21 11223.6 4112.69 11237.2 4118.43 11244.2 4121.2 11249.8 4126.53 11253.8 4132.83 11260.8 4143.69 11269.4 4153.44 11279.2 4161.81 11285.6 4166.84 11291.9 4171.63 11299.5 4174.63 11303.9 4176.34 11308.6 4179.06 11313.4 4178.12 11316.5 4174.16 11316.5 4168.63 11314.6 4164.18 11310.3 4153.66 11304.7 4143.4 11296.6 4135.39 11291.9 4130.72 11287.5 4125.54 11281.5 4122.42 11275.3 4119.1 11268.4 4117.36 11261.8 4114.95 11237.6 4106.22 11215.4 4091.38 11199.5 4071.09 11192.4 4062.26 11188.7 4051.46 11183.9 4041.36 11170.8 4013.24 11149.4 3990.35 11129.7 3966.71 11123.4 3959.48 11115.5 3951.77 11115.6 3941.42 11115.2 3936.36 11116.3 3930.09 11121.6 3927.92 11127.1 3926.71 11131.7 3930.53 11136.1 3933.17 11149.3 3941.11 11160.7 3951.58 11171.2 3962.74 11187 3980.79 11201 4000.61 11211 4022.48 11214.3 4029.87 11217.6 4037.43 11218.1 4045.59 11219 4056.79 11222.7 4068.13 11230.1 4076.77 11237.1 4083.76 11246.1 4088.33 11254.4 4093.45 11259.3 4096.21 11263.8 4100.12 11269.6 4100.84 11269.1 4095.39 11264.8 4091.58 11262.1 4087.17 11253.9 4074.76 11247.6 4061.2 11240.3 4048.26 11228.9 4027.77 11221.9 4005 11218.6 3981.82 11215.7 3960.34 11214.8 3938.64 11215.3 3916.97 11215.9 3908.43 11218.4 3900.13 11221.2 3892.06 11223.5 3885.27 11230.1 3879.12 11237.7 3879.99 11244.7 3879.9 11247.2 3888.27 11248.4 3893.84 11250.1 3921.76 11248.4 3949.78 11245 3977.52 11244.4 3986.96 11241.5 3996.29 11242.8 4005.81 11244.4 4018.26 11250.3 4029.61 11256.3 4040.46 11258.9 4044.66 11261.5 4049.41 11266.5 4051.06 11267.9 4041.46 11267.3 4031.42 11270.9 4022.25 11272.7 4017.22 11277.9 4012.58 11283.6 4013.26 11288.7 4016.16 11289.2 4022.54 11290.3 4027.69 11293.5 4042.07 11296.4 4056.51 11300.2 4070.72 11304.6 4084.45 11309.3 4098.21 11316 4110.99 11319.4 4117.26 11322.3 4124 11327.5 4129.04 11331.8 4133.27 11336.5 4137.31 11339.5 4142.65 11347.7 4156.2 11349.7 4172.12 11354.2 4187.02 11357 4196.43 11358.4 4206.66 11364.6 4214.61 11369.2 4220.98 11377.2 4223.21 11382.5 4228.79 11388.9 4235.19 11392.6 4243.58 11397.6 4251.02 11410.7 4271.08 11423.5 4291.42 11436.5 4311.61 11446.3 4325.64 11452.2 4335.39 11456.5 4335.18 11460.8 4335.39 11466.7 4325.64 11476.5 4311.61 11489.5 4291.42 11502.3 4271.08 11515.4 4251.02 11520.4 4243.58 11524.1 4235.19 11530.5 4228.79 11535.8 4223.21 11543.8 4220.98 11548.4 4214.61 11554.6 4206.66 11556 4196.43 11558.8 4187.02 11563.3 4172.12 11565.3 4156.2 11573.5 4142.65 11576.5 4137.31 11581.2 4133.27 11585.5 4129.04 11590.7 4124 11593.6 4117.26 11597 4110.99 11603.7 4098.21 11608.4 4084.45 11612.8 4070.72 11616.6 4056.51 11619.5 4042.07 11622.7 4027.69 11623.8 4022.54 11624.3 4016.16 11629.4 4013.26 11635.1 4012.58 11640.3 4017.22 11642.1 4022.25 11645.7 4031.42 11645.1 4041.46 11646.5 4051.06 11651.5 4049.41 11654.1 4044.66 11656.7 4040.46 11662.7 4029.61 11668.6 4018.26 11670.2 4005.81 11671.5 3996.29 11668.6 3986.96 11668 3977.52 11664.6 3949.78 11662.9 3921.76 11664.6 3893.84 11665.8 3888.27 11668.3 3879.9 11675.3 3879.99 11682.9 3879.12 11689.5 3885.27 11691.8 3892.06 11694.6 3900.13 11697.1 3908.43 11697.7 3916.97 11698.2 3938.64 11697.3 3960.34 11694.4 3981.82 11691.1 4005 11684.1 4027.77 11672.7 4048.26 11665.4 4061.2 11659.1 4074.76 11650.9 4087.17 11648.2 4091.58 11643.9 4095.39 11643.4 4100.84 11649.2 4100.12 11653.7 4096.21 11658.6 4093.45 11666.9 4088.33 11675.9 4083.76 11682.9 4076.77 11690.3 4068.13 11694 4056.79 11694.9 4045.59 11695.4 4037.43 11698.7 4029.87 11702 4022.48 11712 4000.61 11726 3980.79 11741.8 3962.74 11752.3 3951.58 11763.7 3941.11 11776.9 3933.17 11781.3 3930.53 11785.9 3926.71 11791.4 3927.92 11796.7 3930.09 11797.8 3936.36 11797.4 3941.42 11797.5 3951.77 11789.6 3959.48 11783.3 3966.71 11763.6 3990.35 11742.2 4013.24 11729.1 4041.36 11724.3 4051.46 11720.6 4062.26 11713.5 4071.09 11697.6 4091.38 11675.4 4106.22 11651.2 4114.95 11644.6 4117.36 11637.7 4119.1 11631.5 4122.42 11625.5 4125.54 11621.1 4130.72 11616.4 4135.39 11608.3 4143.4 11602.7 4153.66 11598.4 4164.18 11596.5 4168.63 11596.5 4174.16 11599.6 4178.12 11604.4 4179.06 11609.1 4176.34 11613.5 4174.63 11621.1 4171.63 11627.4 4166.84 11633.8 4161.81 11643.6 4153.44 11652.2 4143.69 11659.2 4132.83 11663.2 4126.53 11668.8 4121.2 11675.8 4118.43 11689.4 4112.69 11702.7 4106.21 11716.6 4101 11721.6 4098.91 11726.9 4097.26 11731.3 4094.03 11737 4089.83 11738 4082.18 11742.5 4077.01 11761.7 4054.07 11779.7 4030.02 11794.9 4004.22 11800.5 3995.29 11804.9 3985.64 11808.2 3975.63 11817.6 3950.41 11821.3 3922.97 11818.3 3896.18 11817.7 3884.17 11818 3872.14 11818 3860.12 11818 3855.79 11818.9 3850.33 11823.5 3848.58 11824.5 3848.11 11825.5 3847.95 11826.4 3848.01 11829.3 3848.2 11832 3850.4 11834 3852.4 11842.1 3860.69 11848.6 3870.9 11851.1 3882.3 11854.9 3897.05 11852.2 3912.33 11850 3927.11 11847.6 3942.84 11844.7 3958.51 11841.4 3974.06 11839.7 3980.98 11837 3988.18 11831.4 3992.94 11828.2 3995.8 11823.9 3997.58 11821.6 4001.33 11808.4 4023.37 11796.6 4046.19 11784.5 4068.82 11781.6 4074.32 11777.8 4079.42 11776.1 4085.47 11791.6 4079.86 11806.5 4072.36 11821.3 4065.16 11826.4 4062.8 11831.2 4059.66 11836.6 4058.01 11845.2 4055.44 11851.7 4067.42 11847.2 4074.18 11841.6 4083.71 11831.5 4089.26 11822.4 4094.98 11808 4103.96 11791.6 4108.93 11775.1 4112.51 11748.3 4118.61 11720.4 4122.26 11695.6 4134.68 11681.1 4141.9 11667.2 4153.04 11662.3 4169.08 11674.9 4170.76 11687.3 4165.65 11696.7 4157.54 11703.5 4152.25 11708.6 4144.8 11716.2 4140.67 11720.9 4137.72 11727.8 4140.12 11730 4145.05 11732.1 4153.63 11727.5 4161.94 11723.7 4169.33 11717.7 4179.62 11705.7 4183.23 11695.2 4187.33 11682.7 4191.71 11670.5 4196.81 11657.7 4200.55 11657.5 4205.31 11666.2 4212.04 11676.6 4213.03 11691.2 4215.96 11707.2 4214.46 11720.1 4206.46 11731.1 4199.39 11743.1 4188.12 11751.7 4178.34 11751.2 4174.09 11750.5 4172.6 11751.1 4167.74 11750.5 4156.63 11758.7 4146.63 11766.1 4139.17 11779.8 4124.44 11798.7 4115.86 11817.9 4110.53 11824.6 4108.62 11831.5 4110.63 11838 4112.4 11842.3 4113.26 11844.3 4117.9 11844.9 4121.85 11844.3 4125.61 11840.9 4127.83 11837.6 4129 11820.2 4135.63 11803.3 4144.63 11790.8 4158.7 11780.3 4169.34 11774.1 4183.18 11764.7 4194.6 11754.7 4205.9 11743.5 4216.43 11729.8 4223.09 11718 4228.86 11705.6 4235.12 11692.1 4234.88 11676.3 4236.07 11660.8 4230.41 11647.9 4221.51 11638.5 4214.79 11627.5 4210.1 11615.8 4209.13 11610 4208.63 11603.7 4211.45 11600.7 4216.63 11596.6 4222.81 11598.4 4231.04 11594.3 4237.21 11590.6 4242.61 11583.9 4244.38 11578.1 4246.43 11560.1 4252.45 11543.6 4262.81 11530.4 4276.47 11520.3 4286.35 11514.3 4299.23 11511.7 4315.43 11511.8 4319.65 11515.8 4318.85 11519.4 4318.55 11520.2 4311.22 11520.6 4309.24 11523.4 4302.77 11528.6 4293.71 11538.6 4284.87 11547 4278.87 11558.5 4271.04 11570.3 4262.72 11584.1 4259.69 11595.2 4257.85 11606.4 4259.13 11617.4 4261.09 11613.4 4249.01 11607.4 4231.4 11611.2 4230.42 11615.8 4229 11622.1 4232.18 11626.2 4233.99 11630.5 4237.27 11632.7 4242.29 11635.8 4246.49 11640.5 4253.25 11647.1 4258.35 11652.4 4264.57 11658.1 4271.13 11661.2 4279.58 11661.9 4288.14 11663 4305.37 11676.8 4318.29 11679.4 4335.1 11680.1 4340.35 11678.7 4345.64 11676.5 4350.38 11670.9 4362.14 11660.3 4370.72 11649 4376.75 11641 4381.02 11632.7 4386.4 11629 4395.13 11627.3 4398.47 11628.5 4402.83 11622.9 4404.77 11616.4 4405.79 11608.9 4401.42 11601.7 4402.04 11595.2 4401.38 11588.8 4404.17 11582.7 4404.39 11577.1 4402.62 11576.2 4397.72 11572.4 4394.77 11567.8 4393.13 11564.6 4397.66 11561.7 4400.49 11559.6 4403.12 11556.5 4406.26 11557.5 4409.97 11559.7 4415.84 11564.3 4420.33 11567.8 4425.38 11575.7 4435.94 11580.5 4449.06 11580.3 4462.32 11579.2 4475.95 11572.2 4488.1 11565.8 4499.86 11560 4510.43 11549.4 4517.54 11538 4520.87 11520.8 4525.95 11506.8 4539.98 11500.9 4556.8 11497 4571.36 11493.1 4573.53 11491.1 4573.19 11486.3 4570.44 11487.2 4562.62 11487.2 4558.86 11487 4550.81 11486.8 4546.79 11487.7 4538.75 11489.3 4529.65 11492.4 4520.73 11497.3 4512.87 11499.6 4509 11502.5 4504.39 11505.9 4500.84 11504.3 4498.07 11503.1 4494.99 11499.1 4492.41 11497.1 4491.19 11491.7 4503.83 11490.7 4510.83 11489.8 4517.84 11485.7 4531.45 11484.1 4532.09 11479.5 4530.55 11481.4 4520.21 11481.2 4513.88 11482.1 4498.8 11485.4 4483.79 11491.5 4469.93 11493.9 4464.74 11496.5 4459.15 11501.6 4456.02 11509.6 4466.9 11515.7 4479.1 11523.7 4490.01 11525.9 4492.74 11527.8 4496.17 11531.8 4495.08 11537 4493.18 11541.6 4488.64 11545.4 4484.81 11551.3 4478.19 11557.6 4470.47 11557.3 4461.06 11557.8 4454.78 11555 4448.95 11551.5 4443.91 11548.4 4439.41 11545.7 4434.56 11542.1 4430.47 11539.6 4432.92 11539 4437.83 11538 4440.09 11536.7 4443.62 11539.7 4445.87 11541.4 4449.95 11543.9 4459.37 11539 4470.34 11530 4474.37 11523.6 4475.37 11514.8 4465.5 11510.7 4461.44 11505.7 4455.45 11502.7 4451.62 11506.8 4443.41 11511.3 4433.27 11514.3 4422.47 11520.2 4413 11527 4402.88 11522.6 4390.11 11519 4379.64 11511.3 4392 11505.2 4405.64 11503.1 4420.15 11502.5 4425.86 11502.4 4434.16 11501.9 4439.9 11500.4 4438.52 11498.1 4428.7 11497.8 4426.52 11496.2 4419.37 11497 4416.03 11496.9 4408.76 11497 4393.4 11501.5 4384.51 11508.4 4371.11 11511.7 4364.99 11516.9 4357.13 11521.8 4353.71 11526.7 4350.29 11533.5 4350.59 11537.9 4350.6 11539.2 4359.29 11538.5 4368.91 11540.2 4377.57 11547 4372.85 11550.5 4369.55 11555.8 4367.08 11560.9 4364.42 11566.6 4364.17 11572.1 4363.03 11563.4 4358.81 11553.1 4358.45 11545.4 4353.03 11542.3 4350.14 11543.4 4347.95 11540.5 4344.8 11539.1 4341.34 11526.7 4346.27 11519.4 4349.34 11512.1 4352.4 11501 4355.64 11496.9 4363.17 11492.8 4374.17 11491.5 4386.53 11488 4397.93 11486.4 4403.34 11481.9 4406.82 11478.3 4411.02 11478.3 4418.6 11476.7 4426.84 11476.1 4434.38 11475.9 4443.28 11474.9 4453.51 11475.4 4462.44 11477.3 4491.41 11472.1 4519.14 11474.2 4548.09L11481.9 4548.09C11484.9 4558.35 11483.4 4569.25 11482.1 4579.67 11479 4599.95 11473.2 4619.9 11464.2 4638.4 11462.7 4641.42 11460.1 4644.99 11456.5 4645L11456.5 4644.99 11456.5 4645C11452.9 4644.99 11450.3 4641.42 11448.8 4638.4 11439.8 4619.9 11434 4599.95 11430.9 4579.67 11429.6 4569.25 11428.1 4558.35 11431.1 4548.09L11438.8 4548.09C11440.9 4519.14 11435.7 4491.41 11437.6 4462.44 11438.1 4453.51 11437.1 4443.28 11436.9 4434.38 11436.3 4426.84 11434.7 4418.6 11434.7 4411.02 11431.1 4406.82 11426.6 4403.34 11425 4397.93 11421.5 4386.53 11420.2 4374.17 11416.1 4363.17 11412 4355.64 11400.9 4352.4 11393.6 4349.34 11386.3 4346.27 11373.9 4341.34 11372.5 4344.8 11369.6 4347.95 11370.7 4350.14 11367.6 4353.03 11359.9 4358.45 11349.6 4358.81 11340.9 4363.03 11346.4 4364.17 11352.1 4364.42 11357.2 4367.08 11362.5 4369.55 11366 4372.85 11372.8 4377.57 11374.5 4368.91 11373.8 4359.29 11375.1 4350.6 11379.5 4350.59 11386.3 4350.29 11391.2 4353.71 11396.1 4357.13 11401.3 4364.99 11404.6 4371.11 11411.5 4384.51 11416 4393.4 11416.1 4408.76 11416 4416.03 11416.8 4419.37 11415.2 4426.52 11414.9 4428.7 11412.6 4438.52 11411.1 4439.9 11410.6 4434.16 11410.5 4425.86 11409.9 4420.15 11407.8 4405.64 11401.7 4392 11394 4379.64 11390.4 4390.11 11386 4402.88 11392.8 4413 11398.7 4422.47 11401.7 4433.27 11406.2 4443.41 11410.3 4451.62 11407.3 4455.45 11402.3 4461.44 11398.2 4465.5 11389.4 4475.37 11383 4474.37 11374 4470.34 11369.1 4459.37 11371.6 4449.95 11373.3 4445.87 11376.3 4443.62 11375 4440.09 11374 4437.83 11373.4 4432.92 11370.9 4430.47 11367.3 4434.56 11364.6 4439.41 11361.5 4443.91 11358 4448.95 11355.2 4454.78 11355.7 4461.06 11355.4 4470.47 11361.7 4478.19 11367.6 4484.81 11371.4 4488.64 11376 4493.18 11381.2 4495.08 11385.2 4496.17 11387.1 4492.74 11389.3 4490.01 11397.3 4479.1 11403.4 4466.9 11411.4 4456.02 11416.5 4459.15 11419.1 4464.74 11421.5 4469.93 11427.6 4483.79 11430.9 4498.8 11431.8 4513.88 11431.6 4520.21 11433.5 4530.55 11428.9 4532.09 11427.3 4531.45 11423.2 4517.84 11422.3 4510.83 11421.3 4503.83 11415.9 4491.19 11413.9 4492.41 11409.9 4494.99 11408.7 4498.07 11407.1 4500.84 11410.5 4504.39 11413.4 4509 11415.7 4512.87 11420.6 4520.73 11423.7 4529.65 11425.3 4538.75 11426.2 4546.79 11426 4550.81 11425.8 4558.86 11425.8 4562.62 11426.7 4570.44 11421.9 4573.19 11419.9 4573.53 11416 4571.36 11412.1 4556.8 11406.2 4539.98 11392.2 4525.95 11375 4520.87 11363.6 4517.54 11353 4510.43 11347.2 4499.86 11340.8 4488.1 11333.8 4475.95 11332.7 4462.32 11332.5 4449.06 11337.3 4435.94 11345.2 4425.38 11348.7 4420.33 11353.3 4415.84 11355.5 4409.97 11356.5 4406.26 11353.4 4403.12 11351.3 4400.49 11348.4 4397.66 11345.2 4393.13 11340.6 4394.77 11336.8 4397.72 11335.9 4402.62 11330.3 4404.39 11324.2 4404.17 11317.8 4401.38 11311.3 4402.04 11304.1 4401.42 11296.6 4405.79 11290.1 4404.77 11284.5 4402.83 11285.7 4398.47 11284 4395.13 11280.3 4386.4 11272 4381.02 11264 4376.75 11252.7 4370.72 11242.1 4362.14 11236.5 4350.38 11234.3 4345.64 11232.9 4340.35 11233.6 4335.1 11236.2 4318.29 11250 4305.37 11251.1 4288.14 11251.8 4279.58 11254.9 4271.13 11260.6 4264.57 11265.9 4258.35 11272.5 4253.25 11277.2 4246.49 11280.3 4242.29 11282.5 4237.27 11286.8 4233.99 11290.9 4232.18 11297.2 4229 11301.8 4230.42 11305.6 4231.4 11299.6 4249.01 11295.6 4261.09 11306.6 4259.13 11317.8 4257.85 11328.9 4259.69 11342.7 4262.72 11354.5 4271.04 11366 4278.87 11374.4 4284.87 11384.4 4293.71 11389.6 4302.77 11392.4 4309.24 11392.8 4311.22 11393.6 4318.55 11397.2 4318.85 11401.2 4319.65 11401.3 4315.43 11398.7 4299.23 11392.7 4286.35 11382.6 4276.47 11369.4 4262.81 11352.9 4252.45 11334.9 4246.43 11329.1 4244.38 11322.4 4242.61 11318.7 4237.21 11314.6 4231.04 11316.4 4222.81 11312.3 4216.63 11309.3 4211.45 11303 4208.63 11297.2 4209.13 11285.5 4210.1 11274.5 4214.79 11265.1 4221.51 11252.2 4230.41 11236.7 4236.07 11220.9 4234.88 11207.4 4235.12 11195 4228.86 11183.2 4223.09 11169.5 4216.43 11158.3 4205.9 11148.3 4194.6 11138.9 4183.18 11132.7 4169.34 11122.2 4158.7 11109.7 4144.63 11092.8 4135.63 11075.4 4129 11072.1 4127.83 11068.7 4125.61 11068.1 4121.85 11068.7 4117.9 11070.7 4113.26 11075 4112.4 11081.5 4110.63 11088.4 4108.62 11095.1 4110.53 11114.3 4115.86 11133.2 4124.44 11146.9 4139.17 11154.3 4146.63 11162.5 4156.63 11161.9 4167.74 11162.5 4172.6 11161.8 4174.09 11161.3 4178.34 11169.9 4188.12 11181.9 4199.39 11192.9 4206.46 11205.8 4214.46 11221.8 4215.96 11236.4 4213.03 11246.8 4212.04 11255.5 4205.31 11255.3 4200.55 11242.5 4196.81 11230.3 4191.71 11217.8 4187.33 11207.3 4183.23 11195.3 4179.62 11189.3 4169.33 11185.5 4161.94 11180.9 4153.63 11183 4145.05 11185.2 4140.12 11192.1 4137.72 11196.8 4140.67 11204.4 4144.8 11209.5 4152.25 11216.3 4157.54 11225.7 4165.65 11238.1 4170.76 11250.7 4169.08 11245.8 4153.04 11231.9 4141.9 11217.4 4134.68 11192.6 4122.26 11164.7 4118.61 11137.9 4112.51 11121.4 4108.93 11105 4103.96 11090.6 4094.98 11081.5 4089.26 11071.4 4083.71 11065.8 4074.18 11061.3 4067.42 11067.8 4055.44 11076.4 4058.01 11081.8 4059.66 11086.6 4062.8 11091.7 4065.16 11106.5 4072.36 11121.4 4079.86 11136.9 4085.47 11135.2 4079.42 11131.4 4074.32 11128.5 4068.82 11116.4 4046.19 11104.6 4023.37 11091.4 4001.33 11089.1 3997.58 11084.8 3995.8 11081.6 3992.94 11076 3988.18 11073.3 3980.98 11071.6 3974.06 11068.3 3958.51 11065.4 3942.84 11063 3927.11 11060.8 3912.33 11058.1 3897.05 11061.9 3882.3 11064.4 3870.9 11070.9 3860.69 11079 3852.4 11081 3850.4 11083.7 3848.2 11086.6 3848.01Z" fill="#CFF041" fill-rule="evenodd"/></g></svg>